<svg xmlns="http://www.w3.org/2000/svg" version="1.1" xmlns:xlink="http://www.w3.org/1999/xlink" width="330" height="308"><svg width="330" height="308" viewBox="0 0 330 308" fill="none" xmlns="http://www.w3.org/2000/svg">
<g opacity="0.28">
<mask id="SvgjsMask1003" fill="white">
<path fill-rule="evenodd" clip-rule="evenodd" d="M146.391 77.0848C140.794 77.631 128.952 79.7648 128.338 80.3375C128.146 80.5173 129.187 80.4855 130.652 80.2671L133.317 79.8695L133.767 82.6751C134.233 85.5753 135.41 87.2266 137.009 87.2266C138.503 87.2266 138.062 88.7618 136.318 89.6328C134.351 90.6158 134.206 92.0391 136.075 92.0391C137.218 92.0391 137.311 91.8905 136.641 91.1367C135.56 89.9216 136.889 89.9504 138.197 91.171C139.105 92.0192 139.1 92.2502 138.147 93.6079C137.413 94.6529 137.299 95.3001 137.768 95.7381C138.237 96.176 138.131 96.8726 137.42 98.03C136.477 99.5634 136.489 99.9153 137.567 102.552C138.851 105.69 143.542 110.688 145.204 110.688C145.944 110.688 146.643 109.468 147.575 106.546C148.833 102.604 149.534 101.611 152.067 100.184C153.028 99.6422 156.66 97.4291 164.804 92.4241L166.864 91.1578L164.643 90.3312C162.332 89.471 161.715 88.0435 163.394 87.4425C163.928 87.2506 165.078 87.5304 165.949 88.0627C169.294 90.1081 169.021 88.787 165.301 84.925L162.379 81.8919L165.194 81.4985C168.384 81.0515 168.905 80.788 169.895 79.1193C170.283 78.4648 171.298 77.7706 172.151 77.5763C174.203 77.1095 164.333 76.3834 157.266 76.4821C154.252 76.5242 149.359 76.7955 146.391 77.0848ZM109.409 87.2633C105.953 88.9037 103.124 90.3114 103.124 90.3908C103.124 90.4702 104.725 90.4419 106.683 90.3282C110.215 90.1231 110.267 90.1454 113.123 93.0353C114.706 94.6378 116.005 96.4966 116.009 97.1656C116.012 97.8345 115.124 99.3914 114.035 100.625C112.676 102.163 112.353 102.867 113.004 102.867C113.525 102.867 115.461 103.815 117.305 104.973C121.141 107.382 121.172 107.392 121.172 106.164C121.172 105.49 121.594 105.349 122.783 105.628C124.858 106.114 124.856 105.242 122.777 102.386C121.006 99.9532 121.504 99.247 123.942 100.738C125.313 101.576 125.597 101.584 126.29 100.804C127.454 99.4954 126.632 97.9663 123.741 96.0605C121.789 94.7744 121.172 93.9629 121.172 92.6839C121.172 91.4429 120.335 90.2705 117.988 88.221C115.225 85.8093 114.948 85.3629 115.893 84.848C116.493 84.5219 116.692 84.2609 116.338 84.2681C115.983 84.2747 112.866 85.6228 109.409 87.2633ZM208.184 87.4798C208.184 87.6579 209.372 88.3695 210.825 89.0613L213.466 90.3192L210.801 92.4481C209.335 93.6194 206.927 96.2398 205.45 98.2713C203.973 100.303 201.527 103.137 200.015 104.57C196.967 107.458 195.952 110.423 197.163 112.903C197.791 114.189 198.25 114.387 200.126 114.183C202.488 113.925 203.027 114.451 203.027 117.018C203.027 119.124 203.976 119.299 206.146 117.595C207.771 116.319 208.312 115.14 209.491 110.31C210.539 106.02 211.36 104.066 212.71 102.656C215.097 100.161 215.79 100.984 214.381 104.641C213.756 106.263 213.339 108.355 213.453 109.289C213.645 110.844 213.936 111.018 216.885 111.345C218.657 111.541 219.639 111.744 219.067 111.796C217.357 111.951 214.653 114.257 215.049 115.221C215.268 115.754 215.028 116.102 214.439 116.102C213.904 116.102 212.891 117.014 212.185 118.129C211.041 119.938 210.507 120.204 207.235 120.585C203.025 121.076 201.094 120.072 201.094 117.392C201.094 114.985 199.766 116.722 199.34 119.686C199.051 121.7 198.636 122.333 197.296 122.806C196.371 123.133 195.035 123.906 194.326 124.523C193.617 125.141 191.66 126.196 189.976 126.868C188.291 127.54 186.914 128.381 186.914 128.737C186.914 129.094 187.54 130.175 188.304 131.14C189.457 132.595 189.554 133.054 188.87 133.822C188.416 134.333 187.573 134.752 186.997 134.754C186.419 134.755 184.86 135.039 183.53 135.383C180.688 136.12 180.382 137.532 182.395 140.615C184.429 143.728 186.383 143.18 192.237 137.853C195.415 134.962 196.298 134.476 198.377 134.476C201.483 134.476 204.639 136.54 205.692 139.259C206.313 140.862 206.682 141.18 207.339 140.671C208.819 139.525 208.311 137.28 206.25 135.858C204.373 134.563 203.656 132.945 204.959 132.945C206.164 132.945 210.956 137.452 211.835 139.412C212.88 141.741 214.331 141.955 214.894 139.863C215.426 137.884 216.926 137.949 217.979 139.999C218.653 141.311 219.626 141.834 222.87 142.626C225.097 143.169 227.119 143.801 227.364 144.029C227.608 144.256 227.368 145.172 226.831 146.064L225.854 147.684H215.569C204.294 147.684 205.234 147.957 201.541 143.615L200.127 141.952L194.326 142.601C186.795 143.444 183.512 144.959 179.795 149.307C173.854 156.254 172.433 161.445 175.135 166.332C177.673 170.924 178.166 171.108 188.846 171.445C200.017 171.798 201.094 172.248 201.094 176.571C201.094 178.284 201.563 179.662 202.544 180.831C203.845 182.382 203.977 183.128 203.821 188.117C203.657 193.414 203.768 193.938 206.187 199.254C210.358 208.419 212.445 209.652 218.543 206.555C222.037 204.78 223.926 202.52 226.912 196.541C228.033 194.297 229.802 191.665 230.845 190.692C232.402 189.238 232.619 188.713 232.063 187.743C231.062 185.997 231.242 182.475 232.444 180.306C233.025 179.257 235.002 176.901 236.836 175.072C240.697 171.222 242.988 168.496 242.988 167.755C242.988 167.468 242.21 167.234 241.258 167.234C238.7 167.234 234.296 165.038 232.035 162.635C230.101 160.579 226.23 153.679 226.23 152.287C226.23 150.169 229.879 154.211 232.662 159.414C234.529 162.905 236.441 164.828 238.043 164.828C241.039 164.828 250.01 159.976 251.357 157.627C252.277 156.022 250.575 154.602 247.734 154.602C244.797 154.602 243.229 153.772 242.012 151.576C240.845 149.471 241.805 149.135 243.914 150.909C246.968 153.479 252.658 154.158 254.177 152.133L255.127 150.867L255.415 152.283C255.573 153.062 255.743 152.308 255.791 150.607C255.991 143.563 251.999 130.117 247.217 121.726C241.459 111.622 232.256 102.013 221.346 94.7148C215.787 90.996 208.184 86.8163 208.184 87.4798ZM102.896 93.9352C101.524 96.6579 100.223 96.6867 100.227 93.9948C100.23 91.7323 99.892 91.8682 93.3378 96.7655C78.7379 107.675 69.4489 119.988 64.5208 134.964C63.0474 139.442 62.8295 141.03 63.7622 140.491C64.0909 140.302 64.5466 140.695 64.7741 141.364C65.0023 142.034 66.3055 143.42 67.6713 144.444C69.037 145.469 71.1698 147.841 72.4099 149.717C74.7405 153.241 77.3437 155.887 77.3437 154.73C77.3437 154.368 77.0498 153.901 76.6902 153.694C75.8014 153.181 73.3244 148.582 73.9471 148.601C74.2197 148.609 75.8935 150.416 77.666 152.617C81.8703 157.837 87.1857 161.47 93.0516 163.132C95.5788 163.848 99.9668 165.561 102.803 166.938C105.639 168.316 108.611 169.597 109.409 169.786C111.26 170.224 111.233 171.213 109.248 175.772C107.089 180.731 107.195 181.846 110.11 184.843C116.83 191.752 118.594 194.258 118.587 196.885C118.583 198.278 118.167 200.687 117.663 202.238C117.159 203.788 116.293 208.702 115.74 213.158C115.187 217.613 114.574 221.648 114.379 222.123C114.119 222.754 115.508 223.522 119.542 224.978C122.578 226.073 125.222 226.819 125.419 226.636C125.615 226.452 124.885 226.12 123.796 225.896C121.475 225.421 121.265 224.192 122.808 220.097C124.37 215.953 126.626 213.168 128.743 212.773C130.188 212.503 130.848 211.868 131.642 209.981C132.456 208.047 133 207.539 134.257 207.539C135.496 207.539 136.425 206.707 138.491 203.748C141.4 199.58 143.754 197.301 146.49 196.004C147.796 195.385 149.061 193.613 151.159 189.466C152.742 186.337 154.038 183.323 154.04 182.767C154.046 180.584 150.461 178.965 142.28 177.457C139.468 176.939 138.574 176.521 138.574 175.727C138.574 173.296 135.294 171.316 125.554 167.867L119.946 165.882L114.177 167.213C107.652 168.717 106.076 168.41 104.958 165.419C104.604 164.472 103.295 162.971 102.049 162.084C100.372 160.89 99.8534 160.121 100.057 159.128C100.317 157.861 100.237 157.831 98.6668 158.596C93.4241 161.149 87.9895 156.658 91.1786 152.408C94.1492 148.449 104.53 148.173 106.906 151.988C107.493 152.93 107.601 152.776 107.617 150.969C107.645 147.919 109.296 145.284 115.095 139.032C120.068 133.67 122.716 131.985 123.737 133.528C124.313 134.396 126.192 133.653 127.67 131.971C128.495 131.033 128.443 130.966 127.134 131.281C126.203 131.505 125.684 131.36 125.684 130.877C125.684 129.297 123.227 127.961 121.028 128.345C119.09 128.683 119.016 128.642 120.129 127.848C120.795 127.372 122.971 126.67 124.963 126.29C129.894 125.346 132.773 124.163 132.773 123.079C132.773 122.582 131.803 121.282 130.617 120.191C129.432 119.1 127.664 116.921 126.689 115.35C124.966 112.571 123.085 111.664 122.108 113.139C121.856 113.52 121.054 112.927 120.161 111.7C118.304 109.151 113.081 106.568 111.939 107.635C111.48 108.063 111.169 110.405 111.151 113.575C111.127 117.5 110.792 119.486 109.81 121.516L108.5 124.223L107.407 122.266C106.6 120.824 105.006 119.695 101.335 117.972C92.8099 113.967 92.2369 112.584 96.5533 106.42C98.6693 103.397 100.631 101.401 102.654 100.211C107.092 97.5993 107.97 94.5139 104.933 92.2027C104.287 91.7112 103.814 92.1137 102.896 93.9352ZM111.504 95.9492C111.504 96.5009 111.816 96.8546 112.197 96.7361C112.578 96.6176 112.89 96.2632 112.89 95.9492C112.89 95.6352 112.578 95.2809 112.197 95.1624C111.816 95.0439 111.504 95.3976 111.504 95.9492ZM225.589 99.709C225.593 100.909 228.75 104.771 228.785 103.619C228.798 103.206 229.3 102.867 229.902 102.867C230.722 102.867 230.448 102.34 228.809 100.762C226.368 98.4114 225.585 98.1552 225.589 99.709ZM173.701 99.8594C173.482 100.19 171.87 100.461 170.118 100.461C166.441 100.461 166.065 101.215 168.514 103.682C170.42 105.601 171.577 105.667 174.431 104.021C176.82 102.643 177.125 101.637 175.589 100.203C174.399 99.0924 174.23 99.0617 173.701 99.8594ZM102.625 102.372C101.447 103.471 102.926 104.672 105.459 104.672C108.036 104.672 108.238 103.975 106.048 102.636C104.154 101.478 103.626 101.437 102.625 102.372ZM186.065 114.689C185.334 115.371 185.57 118.237 186.533 120.39C187.033 121.505 187.289 123.163 187.102 124.072C186.807 125.515 186.967 125.727 188.35 125.727C190.61 125.727 192.588 123.578 191.566 122.232C191.14 121.673 190.077 119.997 189.201 118.508C186.977 114.723 186.565 114.222 186.065 114.689ZM182.155 120.028C180.876 121.221 180.77 123.922 182.001 123.922C183.197 123.922 184.275 122.625 184.485 120.932C184.701 119.198 183.531 118.744 182.155 120.028ZM131.078 126.665C130.151 127.985 130.126 128.32 130.902 129.007C132.162 130.123 134.225 130.605 135.227 130.018C135.89 129.629 135.752 129.058 134.583 127.35C133.765 126.154 132.885 125.165 132.627 125.15C132.369 125.136 131.672 125.818 131.078 126.665ZM227.197 131.141C226.978 131.471 227.008 132.059 227.265 132.446C227.596 132.947 227.375 133.005 226.497 132.647C223.853 131.568 221.509 131.969 220.473 133.676C219.67 134.998 219.638 135.455 220.302 136.075C221.222 136.933 231.415 137.86 232.238 137.16C232.916 136.584 229.385 130.56 228.363 130.547C227.941 130.543 227.416 130.81 227.197 131.141ZM241.377 131.258C239.363 132.324 239.182 132.954 240.151 135.518C240.648 136.833 241.055 138.546 241.055 139.324C241.055 141.241 243.883 143.023 245.247 141.966C245.777 141.555 246.211 140.698 246.211 140.061C246.211 138.54 244.524 135.528 243.493 135.208C242.857 135.01 242.884 134.575 243.62 133.199C244.136 132.232 244.664 131.238 244.794 130.99C245.151 130.304 242.835 130.486 241.377 131.258ZM62.0593 147.684C62.0645 149.338 62.1895 149.943 62.3378 149.029C62.4854 148.114 62.4815 146.761 62.3287 146.021C62.176 145.281 62.0548 146.029 62.0593 147.684ZM255.428 158.211C255.428 160.031 255.548 160.775 255.696 159.865C255.843 158.956 255.843 157.466 255.696 156.557C255.548 155.647 255.428 156.391 255.428 158.211ZM108.011 156.996C108.359 157.321 109.65 157.73 110.879 157.905L113.115 158.222L111.182 157.342C108.917 156.309 107.059 156.107 108.011 156.996ZM62.0683 160.016C62.0683 161.835 62.1889 162.579 62.3365 161.67C62.4841 160.76 62.4841 159.271 62.3365 158.361C62.1889 157.452 62.0683 158.196 62.0683 160.016ZM116.338 159.414C116.111 159.756 116.666 160.016 117.627 160.016C118.588 160.016 119.143 159.756 118.916 159.414C118.697 159.083 118.117 158.813 117.627 158.813C117.137 158.813 116.557 159.083 116.338 159.414ZM251.02 176.971C250.403 178.729 248.93 181.977 247.746 184.189C245.688 188.032 245.632 188.312 246.477 190.548C249.253 197.891 254.583 204.143 263.076 210.019C265.45 211.662 267.534 213.332 267.707 213.732C267.95 214.289 268.035 214.286 268.074 213.719C268.102 213.313 265.501 211.049 262.295 208.687C255.125 203.409 250.671 198.372 248.124 192.661L246.182 188.308L248.219 184.541C250.405 180.5 252.824 174.41 252.401 174.015C252.259 173.882 251.638 175.212 251.02 176.971ZM71.2207 187.688C71.7705 188.68 72.3654 189.492 72.5426 189.492C72.7199 189.492 72.415 188.68 71.8652 187.688C71.3154 186.695 70.7205 185.883 70.5433 185.883C70.366 185.883 70.6709 186.695 71.2207 187.688ZM239.96 188.325C239.182 188.602 238.048 189.723 237.442 190.814C236.308 192.859 235.849 197.466 236.7 198.261C237.573 199.076 239.719 196.597 241.081 193.198C242.643 189.303 242.232 187.516 239.96 188.325ZM77.3624 196.212C78.4955 197.758 80.3118 199.788 81.3978 200.724C82.8519 201.976 82.6689 201.632 80.7069 199.418C75.7614 193.84 75.2948 193.393 77.3624 196.212ZM89.9514 208.441C93.9617 212.051 98.6133 215.355 98.6133 214.593C98.6133 214.465 97.2359 213.446 95.5517 212.328C93.8676 211.21 90.8667 208.931 88.8815 207.263C86.897 205.595 87.3785 206.125 89.9514 208.441ZM103.125 217.434C103.125 217.6 103.995 218.155 105.059 218.668C106.122 219.181 106.992 219.466 106.992 219.3C106.992 219.135 106.122 218.58 105.059 218.066C103.995 217.553 103.125 217.269 103.125 217.434ZM211.89 218.408C210.561 219.063 209.473 219.733 209.473 219.898C209.473 220.062 210.669 219.627 212.131 218.93C214.669 217.722 215.206 217.696 218.174 218.642C219.039 218.917 218.934 218.749 217.852 218.13C215.751 216.926 214.807 216.971 211.89 218.408ZM230.268 221.205C231.247 221.343 232.698 221.34 233.49 221.197C234.283 221.054 233.481 220.941 231.709 220.945C229.937 220.95 229.288 221.067 230.268 221.205ZM243.149 221.204C244.124 221.342 245.72 221.342 246.694 221.204C247.669 221.066 246.872 220.954 244.922 220.954C242.972 220.954 242.175 221.066 243.149 221.204ZM203.027 222.578C201.787 223.212 201.062 223.731 201.416 223.731C201.77 223.731 203.076 223.212 204.316 222.578C205.557 221.944 206.282 221.426 205.928 221.426C205.573 221.426 204.268 221.944 203.027 222.578ZM145.181 230.813C145.801 230.965 146.816 230.965 147.437 230.813C148.057 230.662 147.549 230.538 146.309 230.538C145.068 230.538 144.56 230.662 145.181 230.813ZM170.003 230.824C170.805 230.968 171.965 230.962 172.581 230.812C173.197 230.661 172.541 230.543 171.123 230.55C169.705 230.557 169.201 230.68 170.003 230.824ZM153.531 231.446C155.909 231.561 159.969 231.562 162.555 231.447C165.14 231.333 163.195 231.238 158.232 231.238C153.27 231.236 151.154 231.33 153.531 231.446Z"></path>
</mask>
<path fill-rule="evenodd" clip-rule="evenodd" d="M146.391 77.0848C140.794 77.631 128.952 79.7648 128.338 80.3375C128.146 80.5173 129.187 80.4855 130.652 80.2671L133.317 79.8695L133.767 82.6751C134.233 85.5753 135.41 87.2266 137.009 87.2266C138.503 87.2266 138.062 88.7618 136.318 89.6328C134.351 90.6158 134.206 92.0391 136.075 92.0391C137.218 92.0391 137.311 91.8905 136.641 91.1367C135.56 89.9216 136.889 89.9504 138.197 91.171C139.105 92.0192 139.1 92.2502 138.147 93.6079C137.413 94.6529 137.299 95.3001 137.768 95.7381C138.237 96.176 138.131 96.8726 137.42 98.03C136.477 99.5634 136.489 99.9153 137.567 102.552C138.851 105.69 143.542 110.688 145.204 110.688C145.944 110.688 146.643 109.468 147.575 106.546C148.833 102.604 149.534 101.611 152.067 100.184C153.028 99.6422 156.66 97.4291 164.804 92.4241L166.864 91.1578L164.643 90.3312C162.332 89.471 161.715 88.0435 163.394 87.4425C163.928 87.2506 165.078 87.5304 165.949 88.0627C169.294 90.1081 169.021 88.787 165.301 84.925L162.379 81.8919L165.194 81.4985C168.384 81.0515 168.905 80.788 169.895 79.1193C170.283 78.4648 171.298 77.7706 172.151 77.5763C174.203 77.1095 164.333 76.3834 157.266 76.4821C154.252 76.5242 149.359 76.7955 146.391 77.0848ZM109.409 87.2633C105.953 88.9037 103.124 90.3114 103.124 90.3908C103.124 90.4702 104.725 90.4419 106.683 90.3282C110.215 90.1231 110.267 90.1454 113.123 93.0353C114.706 94.6378 116.005 96.4966 116.009 97.1656C116.012 97.8345 115.124 99.3914 114.035 100.625C112.676 102.163 112.353 102.867 113.004 102.867C113.525 102.867 115.461 103.815 117.305 104.973C121.141 107.382 121.172 107.392 121.172 106.164C121.172 105.49 121.594 105.349 122.783 105.628C124.858 106.114 124.856 105.242 122.777 102.386C121.006 99.9532 121.504 99.247 123.942 100.738C125.313 101.576 125.597 101.584 126.29 100.804C127.454 99.4954 126.632 97.9663 123.741 96.0605C121.789 94.7744 121.172 93.9629 121.172 92.6839C121.172 91.4429 120.335 90.2705 117.988 88.221C115.225 85.8093 114.948 85.3629 115.893 84.848C116.493 84.5219 116.692 84.2609 116.338 84.2681C115.983 84.2747 112.866 85.6228 109.409 87.2633ZM208.184 87.4798C208.184 87.6579 209.372 88.3695 210.825 89.0613L213.466 90.3192L210.801 92.4481C209.335 93.6194 206.927 96.2398 205.45 98.2713C203.973 100.303 201.527 103.137 200.015 104.57C196.967 107.458 195.952 110.423 197.163 112.903C197.791 114.189 198.25 114.387 200.126 114.183C202.488 113.925 203.027 114.451 203.027 117.018C203.027 119.124 203.976 119.299 206.146 117.595C207.771 116.319 208.312 115.14 209.491 110.31C210.539 106.02 211.36 104.066 212.71 102.656C215.097 100.161 215.79 100.984 214.381 104.641C213.756 106.263 213.339 108.355 213.453 109.289C213.645 110.844 213.936 111.018 216.885 111.345C218.657 111.541 219.639 111.744 219.067 111.796C217.357 111.951 214.653 114.257 215.049 115.221C215.268 115.754 215.028 116.102 214.439 116.102C213.904 116.102 212.891 117.014 212.185 118.129C211.041 119.938 210.507 120.204 207.235 120.585C203.025 121.076 201.094 120.072 201.094 117.392C201.094 114.985 199.766 116.722 199.34 119.686C199.051 121.7 198.636 122.333 197.296 122.806C196.371 123.133 195.035 123.906 194.326 124.523C193.617 125.141 191.66 126.196 189.976 126.868C188.291 127.54 186.914 128.381 186.914 128.737C186.914 129.094 187.54 130.175 188.304 131.14C189.457 132.595 189.554 133.054 188.87 133.822C188.416 134.333 187.573 134.752 186.997 134.754C186.419 134.755 184.86 135.039 183.53 135.383C180.688 136.12 180.382 137.532 182.395 140.615C184.429 143.728 186.383 143.18 192.237 137.853C195.415 134.962 196.298 134.476 198.377 134.476C201.483 134.476 204.639 136.54 205.692 139.259C206.313 140.862 206.682 141.18 207.339 140.671C208.819 139.525 208.311 137.28 206.25 135.858C204.373 134.563 203.656 132.945 204.959 132.945C206.164 132.945 210.956 137.452 211.835 139.412C212.88 141.741 214.331 141.955 214.894 139.863C215.426 137.884 216.926 137.949 217.979 139.999C218.653 141.311 219.626 141.834 222.87 142.626C225.097 143.169 227.119 143.801 227.364 144.029C227.608 144.256 227.368 145.172 226.831 146.064L225.854 147.684H215.569C204.294 147.684 205.234 147.957 201.541 143.615L200.127 141.952L194.326 142.601C186.795 143.444 183.512 144.959 179.795 149.307C173.854 156.254 172.433 161.445 175.135 166.332C177.673 170.924 178.166 171.108 188.846 171.445C200.017 171.798 201.094 172.248 201.094 176.571C201.094 178.284 201.563 179.662 202.544 180.831C203.845 182.382 203.977 183.128 203.821 188.117C203.657 193.414 203.768 193.938 206.187 199.254C210.358 208.419 212.445 209.652 218.543 206.555C222.037 204.78 223.926 202.52 226.912 196.541C228.033 194.297 229.802 191.665 230.845 190.692C232.402 189.238 232.619 188.713 232.063 187.743C231.062 185.997 231.242 182.475 232.444 180.306C233.025 179.257 235.002 176.901 236.836 175.072C240.697 171.222 242.988 168.496 242.988 167.755C242.988 167.468 242.21 167.234 241.258 167.234C238.7 167.234 234.296 165.038 232.035 162.635C230.101 160.579 226.23 153.679 226.23 152.287C226.23 150.169 229.879 154.211 232.662 159.414C234.529 162.905 236.441 164.828 238.043 164.828C241.039 164.828 250.01 159.976 251.357 157.627C252.277 156.022 250.575 154.602 247.734 154.602C244.797 154.602 243.229 153.772 242.012 151.576C240.845 149.471 241.805 149.135 243.914 150.909C246.968 153.479 252.658 154.158 254.177 152.133L255.127 150.867L255.415 152.283C255.573 153.062 255.743 152.308 255.791 150.607C255.991 143.563 251.999 130.117 247.217 121.726C241.459 111.622 232.256 102.013 221.346 94.7148C215.787 90.996 208.184 86.8163 208.184 87.4798ZM102.896 93.9352C101.524 96.6579 100.223 96.6867 100.227 93.9948C100.23 91.7323 99.892 91.8682 93.3378 96.7655C78.7379 107.675 69.4489 119.988 64.5208 134.964C63.0474 139.442 62.8295 141.03 63.7622 140.491C64.0909 140.302 64.5466 140.695 64.7741 141.364C65.0023 142.034 66.3055 143.42 67.6713 144.444C69.037 145.469 71.1698 147.841 72.4099 149.717C74.7405 153.241 77.3437 155.887 77.3437 154.73C77.3437 154.368 77.0498 153.901 76.6902 153.694C75.8014 153.181 73.3244 148.582 73.9471 148.601C74.2197 148.609 75.8935 150.416 77.666 152.617C81.8703 157.837 87.1857 161.47 93.0516 163.132C95.5788 163.848 99.9668 165.561 102.803 166.938C105.639 168.316 108.611 169.597 109.409 169.786C111.26 170.224 111.233 171.213 109.248 175.772C107.089 180.731 107.195 181.846 110.11 184.843C116.83 191.752 118.594 194.258 118.587 196.885C118.583 198.278 118.167 200.687 117.663 202.238C117.159 203.788 116.293 208.702 115.74 213.158C115.187 217.613 114.574 221.648 114.379 222.123C114.119 222.754 115.508 223.522 119.542 224.978C122.578 226.073 125.222 226.819 125.419 226.636C125.615 226.452 124.885 226.12 123.796 225.896C121.475 225.421 121.265 224.192 122.808 220.097C124.37 215.953 126.626 213.168 128.743 212.773C130.188 212.503 130.848 211.868 131.642 209.981C132.456 208.047 133 207.539 134.257 207.539C135.496 207.539 136.425 206.707 138.491 203.748C141.4 199.58 143.754 197.301 146.49 196.004C147.796 195.385 149.061 193.613 151.159 189.466C152.742 186.337 154.038 183.323 154.04 182.767C154.046 180.584 150.461 178.965 142.28 177.457C139.468 176.939 138.574 176.521 138.574 175.727C138.574 173.296 135.294 171.316 125.554 167.867L119.946 165.882L114.177 167.213C107.652 168.717 106.076 168.41 104.958 165.419C104.604 164.472 103.295 162.971 102.049 162.084C100.372 160.89 99.8534 160.121 100.057 159.128C100.317 157.861 100.237 157.831 98.6668 158.596C93.4241 161.149 87.9895 156.658 91.1786 152.408C94.1492 148.449 104.53 148.173 106.906 151.988C107.493 152.93 107.601 152.776 107.617 150.969C107.645 147.919 109.296 145.284 115.095 139.032C120.068 133.67 122.716 131.985 123.737 133.528C124.313 134.396 126.192 133.653 127.67 131.971C128.495 131.033 128.443 130.966 127.134 131.281C126.203 131.505 125.684 131.36 125.684 130.877C125.684 129.297 123.227 127.961 121.028 128.345C119.09 128.683 119.016 128.642 120.129 127.848C120.795 127.372 122.971 126.67 124.963 126.29C129.894 125.346 132.773 124.163 132.773 123.079C132.773 122.582 131.803 121.282 130.617 120.191C129.432 119.1 127.664 116.921 126.689 115.35C124.966 112.571 123.085 111.664 122.108 113.139C121.856 113.52 121.054 112.927 120.161 111.7C118.304 109.151 113.081 106.568 111.939 107.635C111.48 108.063 111.169 110.405 111.151 113.575C111.127 117.5 110.792 119.486 109.81 121.516L108.5 124.223L107.407 122.266C106.6 120.824 105.006 119.695 101.335 117.972C92.8099 113.967 92.2369 112.584 96.5533 106.42C98.6693 103.397 100.631 101.401 102.654 100.211C107.092 97.5993 107.97 94.5139 104.933 92.2027C104.287 91.7112 103.814 92.1137 102.896 93.9352ZM111.504 95.9492C111.504 96.5009 111.816 96.8546 112.197 96.7361C112.578 96.6176 112.89 96.2632 112.89 95.9492C112.89 95.6352 112.578 95.2809 112.197 95.1624C111.816 95.0439 111.504 95.3976 111.504 95.9492ZM225.589 99.709C225.593 100.909 228.75 104.771 228.785 103.619C228.798 103.206 229.3 102.867 229.902 102.867C230.722 102.867 230.448 102.34 228.809 100.762C226.368 98.4114 225.585 98.1552 225.589 99.709ZM173.701 99.8594C173.482 100.19 171.87 100.461 170.118 100.461C166.441 100.461 166.065 101.215 168.514 103.682C170.42 105.601 171.577 105.667 174.431 104.021C176.82 102.643 177.125 101.637 175.589 100.203C174.399 99.0924 174.23 99.0617 173.701 99.8594ZM102.625 102.372C101.447 103.471 102.926 104.672 105.459 104.672C108.036 104.672 108.238 103.975 106.048 102.636C104.154 101.478 103.626 101.437 102.625 102.372ZM186.065 114.689C185.334 115.371 185.57 118.237 186.533 120.39C187.033 121.505 187.289 123.163 187.102 124.072C186.807 125.515 186.967 125.727 188.35 125.727C190.61 125.727 192.588 123.578 191.566 122.232C191.14 121.673 190.077 119.997 189.201 118.508C186.977 114.723 186.565 114.222 186.065 114.689ZM182.155 120.028C180.876 121.221 180.77 123.922 182.001 123.922C183.197 123.922 184.275 122.625 184.485 120.932C184.701 119.198 183.531 118.744 182.155 120.028ZM131.078 126.665C130.151 127.985 130.126 128.32 130.902 129.007C132.162 130.123 134.225 130.605 135.227 130.018C135.89 129.629 135.752 129.058 134.583 127.35C133.765 126.154 132.885 125.165 132.627 125.15C132.369 125.136 131.672 125.818 131.078 126.665ZM227.197 131.141C226.978 131.471 227.008 132.059 227.265 132.446C227.596 132.947 227.375 133.005 226.497 132.647C223.853 131.568 221.509 131.969 220.473 133.676C219.67 134.998 219.638 135.455 220.302 136.075C221.222 136.933 231.415 137.86 232.238 137.16C232.916 136.584 229.385 130.56 228.363 130.547C227.941 130.543 227.416 130.81 227.197 131.141ZM241.377 131.258C239.363 132.324 239.182 132.954 240.151 135.518C240.648 136.833 241.055 138.546 241.055 139.324C241.055 141.241 243.883 143.023 245.247 141.966C245.777 141.555 246.211 140.698 246.211 140.061C246.211 138.54 244.524 135.528 243.493 135.208C242.857 135.01 242.884 134.575 243.62 133.199C244.136 132.232 244.664 131.238 244.794 130.99C245.151 130.304 242.835 130.486 241.377 131.258ZM62.0593 147.684C62.0645 149.338 62.1895 149.943 62.3378 149.029C62.4854 148.114 62.4815 146.761 62.3287 146.021C62.176 145.281 62.0548 146.029 62.0593 147.684ZM255.428 158.211C255.428 160.031 255.548 160.775 255.696 159.865C255.843 158.956 255.843 157.466 255.696 156.557C255.548 155.647 255.428 156.391 255.428 158.211ZM108.011 156.996C108.359 157.321 109.65 157.73 110.879 157.905L113.115 158.222L111.182 157.342C108.917 156.309 107.059 156.107 108.011 156.996ZM62.0683 160.016C62.0683 161.835 62.1889 162.579 62.3365 161.67C62.4841 160.76 62.4841 159.271 62.3365 158.361C62.1889 157.452 62.0683 158.196 62.0683 160.016ZM116.338 159.414C116.111 159.756 116.666 160.016 117.627 160.016C118.588 160.016 119.143 159.756 118.916 159.414C118.697 159.083 118.117 158.813 117.627 158.813C117.137 158.813 116.557 159.083 116.338 159.414ZM251.02 176.971C250.403 178.729 248.93 181.977 247.746 184.189C245.688 188.032 245.632 188.312 246.477 190.548C249.253 197.891 254.583 204.143 263.076 210.019C265.45 211.662 267.534 213.332 267.707 213.732C267.95 214.289 268.035 214.286 268.074 213.719C268.102 213.313 265.501 211.049 262.295 208.687C255.125 203.409 250.671 198.372 248.124 192.661L246.182 188.308L248.219 184.541C250.405 180.5 252.824 174.41 252.401 174.015C252.259 173.882 251.638 175.212 251.02 176.971ZM71.2207 187.688C71.7705 188.68 72.3654 189.492 72.5426 189.492C72.7199 189.492 72.415 188.68 71.8652 187.688C71.3154 186.695 70.7205 185.883 70.5433 185.883C70.366 185.883 70.6709 186.695 71.2207 187.688ZM239.96 188.325C239.182 188.602 238.048 189.723 237.442 190.814C236.308 192.859 235.849 197.466 236.7 198.261C237.573 199.076 239.719 196.597 241.081 193.198C242.643 189.303 242.232 187.516 239.96 188.325ZM77.3624 196.212C78.4955 197.758 80.3118 199.788 81.3978 200.724C82.8519 201.976 82.6689 201.632 80.7069 199.418C75.7614 193.84 75.2948 193.393 77.3624 196.212ZM89.9514 208.441C93.9617 212.051 98.6133 215.355 98.6133 214.593C98.6133 214.465 97.2359 213.446 95.5517 212.328C93.8676 211.21 90.8667 208.931 88.8815 207.263C86.897 205.595 87.3785 206.125 89.9514 208.441ZM103.125 217.434C103.125 217.6 103.995 218.155 105.059 218.668C106.122 219.181 106.992 219.466 106.992 219.3C106.992 219.135 106.122 218.58 105.059 218.066C103.995 217.553 103.125 217.269 103.125 217.434ZM211.89 218.408C210.561 219.063 209.473 219.733 209.473 219.898C209.473 220.062 210.669 219.627 212.131 218.93C214.669 217.722 215.206 217.696 218.174 218.642C219.039 218.917 218.934 218.749 217.852 218.13C215.751 216.926 214.807 216.971 211.89 218.408ZM230.268 221.205C231.247 221.343 232.698 221.34 233.49 221.197C234.283 221.054 233.481 220.941 231.709 220.945C229.937 220.95 229.288 221.067 230.268 221.205ZM243.149 221.204C244.124 221.342 245.72 221.342 246.694 221.204C247.669 221.066 246.872 220.954 244.922 220.954C242.972 220.954 242.175 221.066 243.149 221.204ZM203.027 222.578C201.787 223.212 201.062 223.731 201.416 223.731C201.77 223.731 203.076 223.212 204.316 222.578C205.557 221.944 206.282 221.426 205.928 221.426C205.573 221.426 204.268 221.944 203.027 222.578ZM145.181 230.813C145.801 230.965 146.816 230.965 147.437 230.813C148.057 230.662 147.549 230.538 146.309 230.538C145.068 230.538 144.56 230.662 145.181 230.813ZM170.003 230.824C170.805 230.968 171.965 230.962 172.581 230.812C173.197 230.661 172.541 230.543 171.123 230.55C169.705 230.557 169.201 230.68 170.003 230.824ZM153.531 231.446C155.909 231.561 159.969 231.562 162.555 231.447C165.14 231.333 163.195 231.238 158.232 231.238C153.27 231.236 151.154 231.33 153.531 231.446Z" fill="#212121" stroke="#F0F0F0" stroke-opacity="0.98" stroke-width="2" mask="url(#path-1-inside-1_2004_86)"></path>
</g>
<g filter="url(#filter0_d_2004_86)">
<path fill-rule="evenodd" clip-rule="evenodd" d="M170.317 78.2855C169.875 78.7036 169.512 79.3792 169.512 79.787C169.512 80.5847 168.617 80.9216 164.843 81.546L162.43 81.9448L165.326 84.9514C169.023 88.7882 169.285 90.1032 165.949 88.0627C165.078 87.5303 163.928 87.2506 163.394 87.4425C161.715 88.0435 162.332 89.471 164.643 90.3312L166.864 91.1578L164.804 92.424C156.66 97.429 153.028 99.6422 152.067 100.184C149.534 101.611 148.833 102.604 147.575 106.546C146.643 109.468 145.944 110.687 145.204 110.687C143.542 110.687 138.851 105.69 137.567 102.552C136.489 99.9153 136.477 99.5634 137.42 98.03C138.131 96.8726 138.237 96.176 137.768 95.7381C137.299 95.3001 137.413 94.6528 138.147 93.6079C139.1 92.2502 139.105 92.0192 138.197 91.171C136.889 89.9504 135.56 89.9215 136.641 91.1367C137.311 91.8905 137.218 92.039 136.075 92.039C134.206 92.039 134.351 90.6158 136.318 89.6328C138.062 88.7617 138.503 87.2265 137.009 87.2265C135.42 87.2265 134.235 85.5819 133.779 82.7449C133.435 80.6082 133.072 80.0078 132.122 80.0078C130.645 80.0078 121.517 82.6625 117.584 84.2362L114.731 85.3773L117.951 88.1891C120.331 90.2662 121.172 91.4405 121.172 92.6839C121.172 93.9628 121.789 94.7744 123.741 96.0605C126.632 97.9662 127.454 99.4954 126.29 100.804C125.597 101.584 125.313 101.576 123.942 100.738C121.504 99.247 121.006 99.9532 122.777 102.386C124.856 105.242 124.858 106.114 122.783 105.628C121.594 105.349 121.172 105.49 121.172 106.164C121.172 107.392 121.141 107.382 117.305 104.973C115.461 103.815 113.525 102.867 113.004 102.867C112.353 102.867 112.676 102.163 114.035 100.625C115.124 99.3913 116.012 97.8345 116.009 97.1656C116.005 96.4966 114.731 94.6637 113.178 93.0918C110.573 90.4551 110.118 90.2344 107.299 90.2344C103.179 90.2344 99.7515 92.1594 100.028 94.3184C100.335 96.7246 101.554 96.5291 102.977 93.8437L104.279 91.3876L105.635 92.9979C106.382 93.8828 106.992 94.8291 106.992 95.0998C106.992 96.6205 105.221 98.7001 102.625 100.228C100.633 101.399 98.6571 103.415 96.5534 106.42C92.2369 112.584 92.8099 113.967 101.335 117.972C105.006 119.695 106.6 120.824 107.407 122.266L108.5 124.223L109.81 121.516C110.792 119.486 111.128 117.5 111.151 113.575C111.169 110.405 111.48 108.063 111.939 107.635C113.081 106.568 118.304 109.151 120.161 111.7C121.054 112.927 121.856 113.52 122.108 113.139C123.085 111.664 124.966 112.571 126.689 115.35C127.664 116.921 129.432 119.1 130.617 120.191C131.803 121.282 132.773 122.582 132.773 123.079C132.773 124.163 129.894 125.346 124.963 126.29C122.971 126.67 120.795 127.372 120.129 127.848C119.016 128.642 119.09 128.683 121.028 128.345C123.227 127.961 125.684 129.297 125.684 130.877C125.684 131.36 126.203 131.505 127.134 131.281C128.443 130.966 128.495 131.033 127.67 131.971C126.192 133.653 124.313 134.396 123.737 133.528C122.716 131.985 120.068 133.67 115.095 139.032C109.296 145.284 107.645 147.919 107.617 150.969C107.601 152.776 107.493 152.93 106.906 151.988C104.53 148.173 94.1493 148.449 91.1786 152.408C87.9895 156.658 93.4242 161.149 98.6668 158.596C100.237 157.831 100.317 157.861 100.057 159.128C99.8534 160.121 100.372 160.89 102.049 162.084C103.295 162.971 104.604 164.472 104.958 165.419C106.076 168.41 107.652 168.717 114.177 167.213L119.946 165.882L125.554 167.867C135.294 171.316 138.574 173.296 138.574 175.727C138.574 176.521 139.468 176.939 142.28 177.457C150.461 178.965 154.046 180.584 154.04 182.767C154.038 183.323 152.742 186.337 151.159 189.466C149.061 193.613 147.796 195.384 146.49 196.004C143.754 197.301 141.4 199.58 138.491 203.748C136.425 206.707 135.496 207.539 134.257 207.539C133 207.539 132.456 208.047 131.642 209.981C130.848 211.868 130.188 212.503 128.743 212.773C126.626 213.168 124.37 215.953 122.808 220.097C121.011 224.867 121.225 225.25 126.489 226.683C137.772 229.753 147.007 231 158.457 231C176.732 231 192.214 227.674 207.95 220.367L215.217 216.993L218.307 218.22C228.859 222.41 250.725 221.996 264.088 217.354C269.384 215.514 269.208 214.263 263.056 210.006C254.583 204.143 249.251 197.885 246.477 190.547C245.638 188.328 245.693 188.021 247.533 184.62C252.888 174.718 255.956 161.967 255.33 152.212L255.234 150.724L254.231 152.061C252.658 154.157 247.025 153.528 243.914 150.909C241.805 149.135 240.845 149.471 242.012 151.576C243.229 153.772 244.797 154.602 247.734 154.602C250.575 154.602 252.277 156.022 251.358 157.627C250.01 159.976 241.039 164.828 238.043 164.828C236.441 164.828 234.529 162.905 232.662 159.414C229.879 154.211 226.23 150.169 226.23 152.287C226.23 153.679 230.101 160.579 232.035 162.635C234.296 165.038 238.7 167.234 241.258 167.234C242.21 167.234 242.988 167.468 242.988 167.755C242.988 168.496 240.697 171.222 236.836 175.072C235.002 176.901 233.025 179.257 232.444 180.306C231.242 182.475 231.062 185.996 232.063 187.743C232.619 188.713 232.403 189.238 230.845 190.692C229.802 191.665 228.033 194.297 226.912 196.541C223.926 202.52 222.037 204.78 218.543 206.555C212.445 209.652 210.358 208.419 206.187 199.254C203.768 193.938 203.657 193.414 203.821 188.117C203.977 183.128 203.845 182.382 202.544 180.831C201.563 179.662 201.094 178.284 201.094 176.571C201.094 172.248 200.017 171.798 188.846 171.445C178.166 171.108 177.673 170.924 175.135 166.332C172.433 161.445 173.854 156.254 179.795 149.307C183.512 144.959 186.795 143.444 194.326 142.601L200.127 141.952L201.541 143.615C205.234 147.957 204.294 147.684 215.569 147.684H225.854L226.831 146.064C227.368 145.172 227.608 144.256 227.364 144.028C227.119 143.8 225.097 143.169 222.87 142.626C219.626 141.834 218.653 141.311 217.979 139.999C216.926 137.949 215.426 137.884 214.894 139.863C214.331 141.955 212.88 141.741 211.836 139.412C210.956 137.452 206.164 132.945 204.959 132.945C203.656 132.945 204.373 134.563 206.25 135.858C208.311 137.28 208.819 139.525 207.339 140.671C206.682 141.179 206.313 140.862 205.692 139.259C204.639 136.54 201.483 134.476 198.377 134.476C196.298 134.476 195.415 134.962 192.237 137.853C186.383 143.18 184.429 143.728 182.395 140.615C180.382 137.532 180.688 136.12 183.53 135.383C184.86 135.039 186.419 134.755 186.997 134.754C187.573 134.752 188.416 134.332 188.87 133.822C189.554 133.054 189.457 132.595 188.304 131.14C187.54 130.174 186.914 129.093 186.914 128.737C186.914 128.381 188.291 127.54 189.976 126.868C191.66 126.196 193.617 125.141 194.326 124.523C195.035 123.906 196.371 123.133 197.296 122.806C198.636 122.333 199.051 121.7 199.34 119.686C199.766 116.722 201.094 114.985 201.094 117.392C201.094 120.072 203.025 121.076 207.235 120.585C210.507 120.204 211.041 119.938 212.185 118.129C212.891 117.014 213.904 116.102 214.439 116.102C215.028 116.102 215.268 115.754 215.049 115.221C214.653 114.257 217.357 111.951 219.067 111.796C219.639 111.744 218.657 111.541 216.885 111.345C213.936 111.018 213.645 110.844 213.453 109.289C213.339 108.355 213.756 106.263 214.381 104.641C215.79 100.984 215.097 100.161 212.71 102.656C211.361 104.065 210.539 106.02 209.491 110.31C208.312 115.14 207.771 116.319 206.146 117.595C203.976 119.299 203.027 119.124 203.027 117.018C203.027 114.451 202.489 113.925 200.126 114.183C198.25 114.387 197.791 114.189 197.163 112.903C195.952 110.423 196.967 107.458 200.015 104.57C201.527 103.137 203.973 100.303 205.45 98.2712C206.927 96.2398 209.321 93.6308 210.769 92.474L213.402 90.3703L209.342 88.2703C197.72 82.2588 172.852 75.8961 170.317 78.2855ZM111.504 95.9492C111.504 96.5008 111.816 96.8546 112.197 96.736C112.578 96.6175 112.89 96.2632 112.89 95.9492C112.89 95.6352 112.578 95.2809 112.197 95.1624C111.816 95.0439 111.504 95.3976 111.504 95.9492ZM225.589 99.709C225.593 100.909 228.75 104.771 228.785 103.619C228.798 103.206 229.3 102.867 229.902 102.867C230.722 102.867 230.448 102.34 228.809 100.762C226.368 98.4114 225.585 98.1551 225.589 99.709ZM173.701 99.8594C173.482 100.19 171.87 100.461 170.118 100.461C166.441 100.461 166.065 101.215 168.514 103.682C170.42 105.601 171.577 105.667 174.431 104.021C176.82 102.643 177.125 101.637 175.589 100.203C174.399 99.0924 174.23 99.0617 173.701 99.8594ZM102.625 102.371C101.447 103.471 102.926 104.672 105.459 104.672C108.036 104.672 108.238 103.975 106.048 102.636C104.154 101.478 103.626 101.437 102.625 102.371ZM186.065 114.689C185.334 115.371 185.57 118.236 186.533 120.389C187.033 121.505 187.289 123.163 187.102 124.072C186.807 125.515 186.967 125.727 188.35 125.727C190.61 125.727 192.588 123.578 191.566 122.232C191.14 121.673 190.077 119.997 189.202 118.508C186.977 114.723 186.565 114.222 186.065 114.689ZM182.155 120.028C180.876 121.221 180.77 123.922 182.001 123.922C183.197 123.922 184.275 122.625 184.485 120.932C184.701 119.198 183.531 118.744 182.155 120.028ZM131.078 126.665C130.151 127.985 130.126 128.32 130.902 129.007C132.162 130.123 134.225 130.605 135.227 130.017C135.89 129.629 135.752 129.058 134.583 127.35C133.765 126.154 132.885 125.165 132.627 125.15C132.369 125.136 131.672 125.818 131.078 126.665ZM227.197 131.141C226.978 131.471 227.008 132.059 227.265 132.446C227.596 132.946 227.375 133.005 226.497 132.647C223.853 131.568 221.509 131.969 220.473 133.676C219.67 134.998 219.638 135.455 220.302 136.075C221.222 136.933 231.415 137.86 232.238 137.16C232.916 136.584 229.385 130.56 228.363 130.547C227.941 130.543 227.416 130.81 227.197 131.141ZM241.377 131.258C239.363 132.324 239.182 132.954 240.151 135.518C240.648 136.833 241.055 138.546 241.055 139.324C241.055 141.241 243.883 143.023 245.247 141.966C245.777 141.555 246.211 140.698 246.211 140.061C246.211 138.54 244.524 135.528 243.493 135.208C242.857 135.01 242.885 134.575 243.62 133.199C244.136 132.232 244.664 131.238 244.794 130.99C245.151 130.304 242.835 130.486 241.377 131.258ZM63.6049 140.586C63.4148 140.873 62.9314 143.887 62.5311 147.284C60.6124 163.561 65.5553 180.209 76.5445 194.479C81.1555 200.467 89.5467 208.255 96.2143 212.736C102.496 216.957 113.549 222.715 114.201 222.106C114.467 221.857 115.149 217.92 115.715 213.356C116.282 208.792 117.159 203.788 117.663 202.237C118.167 200.687 118.583 198.278 118.587 196.885C118.594 194.258 116.83 191.752 110.11 184.843C107.195 181.846 107.089 180.731 109.248 175.772C111.233 171.213 111.26 170.224 109.409 169.786C108.611 169.597 105.639 168.316 102.803 166.938C99.9668 165.561 95.5788 163.848 93.0516 163.132C87.1857 161.47 81.8703 157.837 77.666 152.617C75.8936 150.416 74.2197 148.609 73.9471 148.601C73.3245 148.582 75.8014 153.181 76.6902 153.694C77.0499 153.901 77.3438 154.359 77.3438 154.71C77.3438 155.899 75.2232 153.749 72.4279 149.726C70.91 147.54 68.9152 145.292 67.9961 144.73C67.077 144.168 65.7912 142.888 65.1383 141.886C64.4854 140.884 63.7951 140.299 63.6049 140.586ZM108.011 156.996C108.359 157.321 109.65 157.73 110.879 157.905L113.115 158.222L111.182 157.342C108.917 156.309 107.059 156.107 108.011 156.996ZM116.338 159.414C116.111 159.756 116.666 160.016 117.627 160.016C118.588 160.016 119.143 159.756 118.916 159.414C118.697 159.083 118.117 158.812 117.627 158.812C117.137 158.812 116.557 159.083 116.338 159.414ZM239.96 188.325C239.182 188.602 238.048 189.723 237.442 190.814C236.308 192.859 235.849 197.466 236.7 198.261C237.573 199.076 239.719 196.597 241.081 193.198C242.643 189.303 242.232 187.516 239.96 188.325Z" fill="#FF383C" fill-opacity="0.39" shape-rendering="crispEdges"></path>
<path fill-rule="evenodd" clip-rule="evenodd" d="M170.317 78.2855C169.875 78.7036 169.512 79.3792 169.512 79.787C169.512 80.5847 168.617 80.9216 164.843 81.546L162.43 81.9448L165.326 84.9514C169.023 88.7882 169.285 90.1032 165.949 88.0627C165.078 87.5303 163.928 87.2506 163.394 87.4425C161.715 88.0435 162.332 89.471 164.643 90.3312L166.864 91.1578L164.804 92.424C156.66 97.429 153.028 99.6422 152.067 100.184C149.534 101.611 148.833 102.604 147.575 106.546C146.643 109.468 145.944 110.687 145.204 110.687C143.542 110.687 138.851 105.69 137.567 102.552C136.489 99.9153 136.477 99.5634 137.42 98.03C138.131 96.8726 138.237 96.176 137.768 95.7381C137.299 95.3001 137.413 94.6528 138.147 93.6079C139.1 92.2502 139.105 92.0192 138.197 91.171C136.889 89.9504 135.56 89.9215 136.641 91.1367C137.311 91.8905 137.218 92.039 136.075 92.039C134.206 92.039 134.351 90.6158 136.318 89.6328C138.062 88.7617 138.503 87.2265 137.009 87.2265C135.42 87.2265 134.235 85.5819 133.779 82.7449C133.435 80.6082 133.072 80.0078 132.122 80.0078C130.645 80.0078 121.517 82.6625 117.584 84.2362L114.731 85.3773L117.951 88.1891C120.331 90.2662 121.172 91.4405 121.172 92.6839C121.172 93.9628 121.789 94.7744 123.741 96.0605C126.632 97.9662 127.454 99.4954 126.29 100.804C125.597 101.584 125.313 101.576 123.942 100.738C121.504 99.247 121.006 99.9532 122.777 102.386C124.856 105.242 124.858 106.114 122.783 105.628C121.594 105.349 121.172 105.49 121.172 106.164C121.172 107.392 121.141 107.382 117.305 104.973C115.461 103.815 113.525 102.867 113.004 102.867C112.353 102.867 112.676 102.163 114.035 100.625C115.124 99.3913 116.012 97.8345 116.009 97.1656C116.005 96.4966 114.731 94.6637 113.178 93.0918C110.573 90.4551 110.118 90.2344 107.299 90.2344C103.179 90.2344 99.7515 92.1594 100.028 94.3184C100.335 96.7246 101.554 96.5291 102.977 93.8437L104.279 91.3876L105.635 92.9979C106.382 93.8828 106.992 94.8291 106.992 95.0998C106.992 96.6205 105.221 98.7001 102.625 100.228C100.633 101.399 98.6571 103.415 96.5534 106.42C92.2369 112.584 92.8099 113.967 101.335 117.972C105.006 119.695 106.6 120.824 107.407 122.266L108.5 124.223L109.81 121.516C110.792 119.486 111.128 117.5 111.151 113.575C111.169 110.405 111.48 108.063 111.939 107.635C113.081 106.568 118.304 109.151 120.161 111.7C121.054 112.927 121.856 113.52 122.108 113.139C123.085 111.664 124.966 112.571 126.689 115.35C127.664 116.921 129.432 119.1 130.617 120.191C131.803 121.282 132.773 122.582 132.773 123.079C132.773 124.163 129.894 125.346 124.963 126.29C122.971 126.67 120.795 127.372 120.129 127.848C119.016 128.642 119.09 128.683 121.028 128.345C123.227 127.961 125.684 129.297 125.684 130.877C125.684 131.36 126.203 131.505 127.134 131.281C128.443 130.966 128.495 131.033 127.67 131.971C126.192 133.653 124.313 134.396 123.737 133.528C122.716 131.985 120.068 133.67 115.095 139.032C109.296 145.284 107.645 147.919 107.617 150.969C107.601 152.776 107.493 152.93 106.906 151.988C104.53 148.173 94.1493 148.449 91.1786 152.408C87.9895 156.658 93.4242 161.149 98.6668 158.596C100.237 157.831 100.317 157.861 100.057 159.128C99.8534 160.121 100.372 160.89 102.049 162.084C103.295 162.971 104.604 164.472 104.958 165.419C106.076 168.41 107.652 168.717 114.177 167.213L119.946 165.882L125.554 167.867C135.294 171.316 138.574 173.296 138.574 175.727C138.574 176.521 139.468 176.939 142.28 177.457C150.461 178.965 154.046 180.584 154.04 182.767C154.038 183.323 152.742 186.337 151.159 189.466C149.061 193.613 147.796 195.384 146.49 196.004C143.754 197.301 141.4 199.58 138.491 203.748C136.425 206.707 135.496 207.539 134.257 207.539C133 207.539 132.456 208.047 131.642 209.981C130.848 211.868 130.188 212.503 128.743 212.773C126.626 213.168 124.37 215.953 122.808 220.097C121.011 224.867 121.225 225.25 126.489 226.683C137.772 229.753 147.007 231 158.457 231C176.732 231 192.214 227.674 207.95 220.367L215.217 216.993L218.307 218.22C228.859 222.41 250.725 221.996 264.088 217.354C269.384 215.514 269.208 214.263 263.056 210.006C254.583 204.143 249.251 197.885 246.477 190.547C245.638 188.328 245.693 188.021 247.533 184.62C252.888 174.718 255.956 161.967 255.33 152.212L255.234 150.724L254.231 152.061C252.658 154.157 247.025 153.528 243.914 150.909C241.805 149.135 240.845 149.471 242.012 151.576C243.229 153.772 244.797 154.602 247.734 154.602C250.575 154.602 252.277 156.022 251.358 157.627C250.01 159.976 241.039 164.828 238.043 164.828C236.441 164.828 234.529 162.905 232.662 159.414C229.879 154.211 226.23 150.169 226.23 152.287C226.23 153.679 230.101 160.579 232.035 162.635C234.296 165.038 238.7 167.234 241.258 167.234C242.21 167.234 242.988 167.468 242.988 167.755C242.988 168.496 240.697 171.222 236.836 175.072C235.002 176.901 233.025 179.257 232.444 180.306C231.242 182.475 231.062 185.996 232.063 187.743C232.619 188.713 232.403 189.238 230.845 190.692C229.802 191.665 228.033 194.297 226.912 196.541C223.926 202.52 222.037 204.78 218.543 206.555C212.445 209.652 210.358 208.419 206.187 199.254C203.768 193.938 203.657 193.414 203.821 188.117C203.977 183.128 203.845 182.382 202.544 180.831C201.563 179.662 201.094 178.284 201.094 176.571C201.094 172.248 200.017 171.798 188.846 171.445C178.166 171.108 177.673 170.924 175.135 166.332C172.433 161.445 173.854 156.254 179.795 149.307C183.512 144.959 186.795 143.444 194.326 142.601L200.127 141.952L201.541 143.615C205.234 147.957 204.294 147.684 215.569 147.684H225.854L226.831 146.064C227.368 145.172 227.608 144.256 227.364 144.028C227.119 143.8 225.097 143.169 222.87 142.626C219.626 141.834 218.653 141.311 217.979 139.999C216.926 137.949 215.426 137.884 214.894 139.863C214.331 141.955 212.88 141.741 211.836 139.412C210.956 137.452 206.164 132.945 204.959 132.945C203.656 132.945 204.373 134.563 206.25 135.858C208.311 137.28 208.819 139.525 207.339 140.671C206.682 141.179 206.313 140.862 205.692 139.259C204.639 136.54 201.483 134.476 198.377 134.476C196.298 134.476 195.415 134.962 192.237 137.853C186.383 143.18 184.429 143.728 182.395 140.615C180.382 137.532 180.688 136.12 183.53 135.383C184.86 135.039 186.419 134.755 186.997 134.754C187.573 134.752 188.416 134.332 188.87 133.822C189.554 133.054 189.457 132.595 188.304 131.14C187.54 130.174 186.914 129.093 186.914 128.737C186.914 128.381 188.291 127.54 189.976 126.868C191.66 126.196 193.617 125.141 194.326 124.523C195.035 123.906 196.371 123.133 197.296 122.806C198.636 122.333 199.051 121.7 199.34 119.686C199.766 116.722 201.094 114.985 201.094 117.392C201.094 120.072 203.025 121.076 207.235 120.585C210.507 120.204 211.041 119.938 212.185 118.129C212.891 117.014 213.904 116.102 214.439 116.102C215.028 116.102 215.268 115.754 215.049 115.221C214.653 114.257 217.357 111.951 219.067 111.796C219.639 111.744 218.657 111.541 216.885 111.345C213.936 111.018 213.645 110.844 213.453 109.289C213.339 108.355 213.756 106.263 214.381 104.641C215.79 100.984 215.097 100.161 212.71 102.656C211.361 104.065 210.539 106.02 209.491 110.31C208.312 115.14 207.771 116.319 206.146 117.595C203.976 119.299 203.027 119.124 203.027 117.018C203.027 114.451 202.489 113.925 200.126 114.183C198.25 114.387 197.791 114.189 197.163 112.903C195.952 110.423 196.967 107.458 200.015 104.57C201.527 103.137 203.973 100.303 205.45 98.2712C206.927 96.2398 209.321 93.6308 210.769 92.474L213.402 90.3703L209.342 88.2703C197.72 82.2588 172.852 75.8961 170.317 78.2855ZM111.504 95.9492C111.504 96.5008 111.816 96.8546 112.197 96.736C112.578 96.6175 112.89 96.2632 112.89 95.9492C112.89 95.6352 112.578 95.2809 112.197 95.1624C111.816 95.0439 111.504 95.3976 111.504 95.9492ZM225.589 99.709C225.593 100.909 228.75 104.771 228.785 103.619C228.798 103.206 229.3 102.867 229.902 102.867C230.722 102.867 230.448 102.34 228.809 100.762C226.368 98.4114 225.585 98.1551 225.589 99.709ZM173.701 99.8594C173.482 100.19 171.87 100.461 170.118 100.461C166.441 100.461 166.065 101.215 168.514 103.682C170.42 105.601 171.577 105.667 174.431 104.021C176.82 102.643 177.125 101.637 175.589 100.203C174.399 99.0924 174.23 99.0617 173.701 99.8594ZM102.625 102.371C101.447 103.471 102.926 104.672 105.459 104.672C108.036 104.672 108.238 103.975 106.048 102.636C104.154 101.478 103.626 101.437 102.625 102.371ZM186.065 114.689C185.334 115.371 185.57 118.236 186.533 120.389C187.033 121.505 187.289 123.163 187.102 124.072C186.807 125.515 186.967 125.727 188.35 125.727C190.61 125.727 192.588 123.578 191.566 122.232C191.14 121.673 190.077 119.997 189.202 118.508C186.977 114.723 186.565 114.222 186.065 114.689ZM182.155 120.028C180.876 121.221 180.77 123.922 182.001 123.922C183.197 123.922 184.275 122.625 184.485 120.932C184.701 119.198 183.531 118.744 182.155 120.028ZM131.078 126.665C130.151 127.985 130.126 128.32 130.902 129.007C132.162 130.123 134.225 130.605 135.227 130.017C135.89 129.629 135.752 129.058 134.583 127.35C133.765 126.154 132.885 125.165 132.627 125.15C132.369 125.136 131.672 125.818 131.078 126.665ZM227.197 131.141C226.978 131.471 227.008 132.059 227.265 132.446C227.596 132.946 227.375 133.005 226.497 132.647C223.853 131.568 221.509 131.969 220.473 133.676C219.67 134.998 219.638 135.455 220.302 136.075C221.222 136.933 231.415 137.86 232.238 137.16C232.916 136.584 229.385 130.56 228.363 130.547C227.941 130.543 227.416 130.81 227.197 131.141ZM241.377 131.258C239.363 132.324 239.182 132.954 240.151 135.518C240.648 136.833 241.055 138.546 241.055 139.324C241.055 141.241 243.883 143.023 245.247 141.966C245.777 141.555 246.211 140.698 246.211 140.061C246.211 138.54 244.524 135.528 243.493 135.208C242.857 135.01 242.885 134.575 243.62 133.199C244.136 132.232 244.664 131.238 244.794 130.99C245.151 130.304 242.835 130.486 241.377 131.258ZM63.6049 140.586C63.4148 140.873 62.9314 143.887 62.5311 147.284C60.6124 163.561 65.5553 180.209 76.5445 194.479C81.1555 200.467 89.5467 208.255 96.2143 212.736C102.496 216.957 113.549 222.715 114.201 222.106C114.467 221.857 115.149 217.92 115.715 213.356C116.282 208.792 117.159 203.788 117.663 202.237C118.167 200.687 118.583 198.278 118.587 196.885C118.594 194.258 116.83 191.752 110.11 184.843C107.195 181.846 107.089 180.731 109.248 175.772C111.233 171.213 111.26 170.224 109.409 169.786C108.611 169.597 105.639 168.316 102.803 166.938C99.9668 165.561 95.5788 163.848 93.0516 163.132C87.1857 161.47 81.8703 157.837 77.666 152.617C75.8936 150.416 74.2197 148.609 73.9471 148.601C73.3245 148.582 75.8014 153.181 76.6902 153.694C77.0499 153.901 77.3438 154.359 77.3438 154.71C77.3438 155.899 75.2232 153.749 72.4279 149.726C70.91 147.54 68.9152 145.292 67.9961 144.73C67.077 144.168 65.7912 142.888 65.1383 141.886C64.4854 140.884 63.7951 140.299 63.6049 140.586ZM108.011 156.996C108.359 157.321 109.65 157.73 110.879 157.905L113.115 158.222L111.182 157.342C108.917 156.309 107.059 156.107 108.011 156.996ZM116.338 159.414C116.111 159.756 116.666 160.016 117.627 160.016C118.588 160.016 119.143 159.756 118.916 159.414C118.697 159.083 118.117 158.812 117.627 158.812C117.137 158.812 116.557 159.083 116.338 159.414ZM239.96 188.325C239.182 188.602 238.048 189.723 237.442 190.814C236.308 192.859 235.849 197.466 236.7 198.261C237.573 199.076 239.719 196.597 241.081 193.198C242.643 189.303 242.232 187.516 239.96 188.325Z" stroke="#181818" stroke-width="2" shape-rendering="crispEdges"></path>
</g>
<defs>
<filter id="SvgjsFilter1002" x="57.1264" y="76.7702" width="215.751" height="163.23" filterUnits="userSpaceOnUse" color-interpolation-filters="sRGB">
<feFlood flood-opacity="0" result="BackgroundImageFix"></feFlood>
<feColorMatrix in="SourceAlpha" type="matrix" values="0 0 0 0 0 0 0 0 0 0 0 0 0 0 0 0 0 0 127 0" result="hardAlpha"></feColorMatrix>
<feOffset dy="4"></feOffset>
<feGaussianBlur stdDeviation="2"></feGaussianBlur>
<feComposite in2="hardAlpha" operator="out"></feComposite>
<feColorMatrix type="matrix" values="0 0 0 0 0.305882 0 0 0 0 0.305882 0 0 0 0 0.305882 0 0 0 1 0"></feColorMatrix>
<feBlend mode="normal" in2="BackgroundImageFix" result="effect1_dropShadow_2004_86"></feBlend>
<feBlend mode="normal" in="SourceGraphic" in2="effect1_dropShadow_2004_86" result="shape"></feBlend>
</filter>
</defs>
</svg><style>@media (prefers-color-scheme: light) { :root { filter: none; } }
@media (prefers-color-scheme: dark) { :root { filter: none; } }
</style></svg>