<svg xmlns="http://www.w3.org/2000/svg" width="512" height="512" viewBox="0 0 512 512" version="1.1"><path d="M 227.500 128.027 C 207.898 130.252, 190.815 135.119, 173.388 143.442 C 132.570 162.936, 104.872 196.450, 97.512 235.250 C 94.716 249.988, 96.020 277.127, 99.949 286 L 101.056 288.500 100.496 286 C 96.920 270.050, 95.846 248.481, 98.103 237.954 L 99.206 232.810 100.962 235.698 C 101.928 237.286, 103.891 239.354, 105.325 240.293 C 106.758 241.233, 109.927 245.059, 112.367 248.796 C 118.160 257.670, 121.330 260.326, 117.025 252.698 C 115.228 249.514, 113.991 246.676, 114.275 246.391 C 114.560 246.107, 117.287 249.165, 120.335 253.187 C 123.383 257.209, 127.505 261.778, 129.496 263.339 C 133.401 266.401, 145.009 272, 147.454 272 C 148.277 272, 152.822 274.025, 157.554 276.500 C 162.285 278.975, 167.238 281, 168.559 281 C 172.218 281, 172.529 284.548, 169.562 292.433 C 168.153 296.176, 167 300.054, 167 301.052 C 167 302.049, 170.356 306.714, 174.457 311.418 C 185.304 323.859, 185.529 324.532, 182.673 336.004 C 181.784 339.577, 180.383 348.298, 179.560 355.385 C 178.737 362.472, 177.810 368.524, 177.500 368.834 C 176.557 369.776, 164.089 363.209, 153.500 356.193 C 132.097 342.011, 114.469 320.708, 104.378 296.829 C 102.442 292.248, 101.146 289.850, 101.498 291.500 C 102.581 296.578, 112.587 316.135, 117.676 323.120 C 133.893 345.377, 156.940 362.731, 185 373.813 C 193.407 377.133, 213.372 382.376, 215.239 381.754 C 215.906 381.531, 213.684 380.804, 210.299 380.139 C 206.915 379.473, 200.626 377.873, 196.323 376.583 C 187.635 373.979, 187.858 374.417, 190.701 365.500 C 192.716 359.178, 195.098 356.028, 199.773 353.498 C 201.808 352.397, 203.640 350.597, 203.844 349.498 C 204.389 346.563, 205.965 345, 208.380 345 C 209.898 345, 211.815 343.072, 215.008 338.332 C 220.339 330.419, 222.263 328.464, 227.250 325.893 C 229.313 324.829, 231 323.440, 231 322.806 C 231 322.171, 232.822 317.992, 235.048 313.519 C 238.484 306.616, 238.943 304.981, 238.084 302.721 C 236.880 299.555, 232.262 297.381, 222.884 295.565 C 215.064 294.050, 214 293.501, 214 290.980 C 214 287.768, 210.160 285.241, 198.156 280.555 L 186.631 276.056 177.226 278.217 C 166.770 280.618, 165.729 280.392, 162.759 275.076 C 161.759 273.286, 159.604 270.696, 157.970 269.322 C 156.337 267.947, 155 265.973, 155 264.936 C 155 263.324, 154.626 263.192, 152.435 264.025 C 145.694 266.588, 140 263.593, 140 257.486 C 140 251.955, 145.959 248, 154.295 248 C 158.416 248, 160.596 248.594, 163.360 250.470 L 167 252.940 167 249.930 C 167 245.432, 170.043 240.438, 178.533 231 C 186.878 221.723, 190.653 218.931, 191.581 221.349 C 192.290 223.197, 195.348 222.392, 197.685 219.743 C 199.456 217.735, 199.447 217.699, 197.285 218.240 C 195.685 218.641, 194.902 218.267, 194.467 216.896 C 193.645 214.306, 190.861 212.988, 187.392 213.547 C 181.284 214.531, 187.985 211.204, 195.461 209.541 C 203.895 207.664, 207.154 205.153, 204.888 202.275 C 204.125 201.306, 202.473 199.678, 201.217 198.658 C 199.961 197.638, 197.816 194.597, 196.450 191.901 C 193.851 186.773, 193.112 186.335, 189.930 188.038 C 188.324 188.897, 187.801 188.658, 186.883 186.642 C 184.769 182.004, 174.944 176.664, 173.329 179.276 C 172.945 179.897, 172.583 184.477, 172.523 189.453 C 172.443 196.176, 171.929 199.463, 170.522 202.250 C 168.622 206.014, 167 207.137, 167 204.687 C 167 202.569, 161.964 198.443, 155.352 195.143 C 149.113 192.029, 145.003 188.048, 144.997 185.115 C 144.993 183.320, 155.057 168.050, 156.264 168.019 C 156.684 168.009, 158.587 166.988, 160.493 165.750 C 164.956 162.851, 166.599 158.563, 164.483 155.334 C 162.427 152.195, 161.666 152.381, 159.701 156.500 C 157.651 160.799, 155 161.185, 155 157.184 C 155 153.538, 160.887 150, 166.955 150 C 170.623 150, 171.682 150.569, 175.568 154.625 C 180.865 160.153, 181.123 162.651, 176.896 167.465 C 174.189 170.549, 174.039 171, 175.720 171 C 176.781 171, 179.865 172.580, 182.574 174.511 C 186.367 177.215, 187.574 177.675, 187.823 176.511 C 188.004 175.667, 189.218 175, 190.573 175 C 193.571 175, 193.570 174.929, 190.500 170.405 C 187.111 165.411, 187.357 164.423, 191.395 166.806 C 193.873 168.268, 195.089 168.511, 195.895 167.705 C 197.832 165.768, 197.110 164.224, 192.500 160.446 C 189.134 157.688, 188 156.060, 188 153.985 C 188 151.909, 186.730 150.085, 182.958 146.746 L 177.917 142.282 182.819 140.173 C 189.077 137.481, 202.984 133.029, 205.189 133.013 C 206.429 133.003, 207.059 134.207, 207.560 137.550 C 208.267 142.266, 210.106 145, 212.571 145 C 214.330 145, 214.471 147.642, 212.750 148.343 C 211.904 148.688, 212.266 149.472, 213.873 150.773 C 216.195 152.653, 216.208 152.752, 214.475 155.399 C 213.202 157.340, 213.008 158.408, 213.786 159.186 C 214.564 159.964, 214.424 160.949, 213.290 162.680 C 211.986 164.671, 211.909 165.751, 212.847 168.884 C 214.233 173.511, 219.045 180.328, 222.540 182.618 C 225.853 184.789, 226.992 183.642, 229.372 175.742 C 231.305 169.329, 233.264 167.567, 250.213 157.006 L 258.926 151.577 255.713 150.538 C 253.523 149.831, 252.500 148.868, 252.500 147.514 C 252.500 144.892, 255.635 144.360, 258.074 146.567 C 259.851 148.175, 260 148.180, 260 146.633 C 260 145.710, 258.167 142.967, 255.927 140.537 L 251.854 136.118 255.677 135.472 C 261.844 134.429, 262.467 134.134, 263.509 131.759 C 264.394 129.742, 265.143 129.519, 270.500 129.679 L 276.500 129.857 272 128.980 C 265.053 127.625, 236.435 127.012, 227.500 128.027 M 279 131 C 280.375 131.440, 282.400 131.801, 283.500 131.801 C 285.084 131.801, 284.980 131.634, 283 131 C 281.625 130.560, 279.600 130.199, 278.500 130.199 C 276.916 130.199, 277.020 130.366, 279 131 M 288 133 C 291.419 134.095, 294.048 134.095, 291.500 133 C 290.400 132.527, 288.600 132.154, 287.500 132.170 C 285.892 132.194, 285.990 132.356, 288 133 M 308.036 139.417 C 312.731 141.255, 319.800 144.385, 323.746 146.372 L 330.920 149.985 326.208 154.742 C 323.616 157.359, 319.472 162.509, 316.998 166.187 C 314.524 169.865, 311.508 173.417, 310.295 174.082 C 307.730 175.487, 305 180.727, 305 184.246 C 305 187.570, 308.118 190.181, 311.640 189.805 C 314.288 189.523, 314.523 189.778, 314.810 193.250 C 315.173 197.628, 316.702 198.033, 320.472 194.750 C 322.464 193.015, 323.419 190.668, 324.642 184.500 C 325.515 180.100, 327.112 174.900, 328.190 172.943 C 330.058 169.555, 333.699 166.365, 334.633 167.299 C 334.873 167.540, 334.124 170.266, 332.968 173.357 C 330.650 179.551, 330.664 184.425, 333 184.635 C 333.825 184.709, 336.075 184.841, 338 184.929 L 341.500 185.088 337.750 187.068 C 335.350 188.335, 334 189.759, 334 191.024 C 334 192.111, 333.369 193, 332.599 193 C 331.828 193, 330.297 194.527, 329.196 196.393 C 327.472 199.314, 326.494 199.882, 322.155 200.479 C 319.384 200.860, 316.164 200.870, 315.001 200.500 C 312.707 199.772, 310.578 195.492, 311.647 193.762 C 312.013 193.171, 311.843 192.979, 311.270 193.333 C 310.698 193.686, 309.925 196.012, 309.552 198.501 C 308.960 202.449, 308.435 203.209, 305.437 204.462 C 303.547 205.252, 302 206.294, 302 206.778 C 302 207.262, 299.736 208.719, 296.968 210.015 C 290.753 212.926, 289.463 214.314, 291.271 216.144 C 293.394 218.291, 294.130 221.138, 292.935 222.578 C 292.331 223.306, 289.923 224.189, 287.584 224.540 C 280.972 225.531, 280.425 226.138, 281.853 230.905 C 284.252 238.910, 288.815 238.375, 298.644 228.937 C 305.302 222.544, 307.748 221.784, 312.971 224.485 C 316.261 226.186, 320 230.996, 320 233.527 C 320 234.941, 320.266 235.024, 321.500 234 C 323.970 231.950, 323.295 228.278, 320 225.842 C 316.865 223.524, 316.018 221, 318.374 221 C 320.290 221, 328.383 229.536, 329.044 232.253 C 329.827 235.473, 332.617 235.663, 333.398 232.550 C 334.216 229.291, 336.710 229.269, 338.186 232.509 C 338.961 234.210, 340.646 235.374, 343.415 236.121 C 353.477 238.838, 354.333 239.652, 351.452 243.764 C 349.947 245.914, 349.473 245.964, 333.926 245.618 C 320.311 245.314, 317.655 244.997, 315.973 243.476 C 314.888 242.494, 314 241.155, 314 240.500 C 314 239.845, 313.210 238.595, 312.245 237.721 C 310.748 236.367, 309.314 236.275, 302.495 237.099 C 288.005 238.849, 284.163 240.931, 276.835 251 C 269.546 261.018, 268.130 268.506, 272.011 276.523 C 275.641 284.022, 278.207 285.029, 293.397 284.921 C 309.256 284.807, 311.195 285.728, 312.020 293.769 C 312.333 296.818, 313.328 299.706, 314.520 301.023 C 316.206 302.887, 316.500 304.649, 316.500 312.872 C 316.500 321.559, 316.852 323.421, 320 331.377 C 325.628 345.600, 329.517 348.328, 337.999 344.001 C 343.769 341.057, 346.767 337.465, 351.182 328.207 C 353.357 323.646, 356.425 318.447, 357.999 316.654 C 360.034 314.337, 360.597 312.975, 359.946 311.947 C 357.054 307.375, 360.097 298.103, 366.492 292 C 370.150 288.509, 377 279.785, 377 278.616 C 377 278.277, 375.861 278, 374.468 278 C 367.051 278, 359.470 271.816, 354.411 261.640 C 350.891 254.560, 350.256 252, 352.020 252 C 353.191 252, 361.390 264.388, 362.427 267.724 C 363.259 270.400, 367.600 274, 369.996 274 C 371.928 274, 385.464 266.795, 388.222 264.299 C 389.200 263.414, 390 261.687, 390 260.462 C 390 258.084, 387.771 257.038, 382.651 257.014 C 379.934 257.001, 374 252.117, 374 249.894 C 374 248.450, 376.194 248.866, 378.214 250.694 C 380.531 252.790, 386.601 254.965, 390.193 254.985 C 391.833 254.994, 393.479 254.154, 394.402 252.836 C 395.812 250.823, 395.941 251.293, 396.253 259.586 C 396.573 268.089, 396.598 267.963, 396.794 256.860 C 397.028 243.632, 395.430 233.557, 390.897 219.684 C 379.502 184.808, 349.250 154.770, 309.724 139.086 C 305.447 137.389, 301.397 136.017, 300.724 136.037 C 300.051 136.057, 303.341 137.578, 308.036 139.417 M 209 150.996 C 209 152.209, 211.805 153.529, 212.629 152.705 C 212.927 152.406, 212.233 151.660, 211.086 151.046 C 209.639 150.272, 209 150.257, 209 150.996 M 173.469 159.050 C 172.519 160.588, 173.820 161.580, 175.104 160.296 C 175.822 159.578, 175.839 159.019, 175.156 158.597 C 174.596 158.251, 173.837 158.455, 173.469 159.050 M 350 165.818 C 350 168.192, 354.053 173.512, 354.889 172.234 C 355.225 171.720, 356.095 171.109, 356.823 170.876 C 357.648 170.611, 356.613 169.220, 354.073 167.179 C 350.537 164.337, 350 164.158, 350 165.818 M 268.647 166.686 C 268.270 167.063, 265.945 167.267, 263.481 167.140 C 258.186 166.866, 257.672 168.275, 261.543 172.452 C 263.534 174.600, 264.647 175.054, 266.673 174.546 C 269.819 173.756, 273.926 170.888, 273.969 169.450 C 274.041 167.043, 270.256 165.077, 268.647 166.686 M 159.380 170.452 C 158.517 172.702, 159.841 174, 163 174 C 167.075 174, 167.590 172.356, 164.082 170.543 C 160.409 168.643, 160.077 168.637, 159.380 170.452 M 288.682 190.652 C 287.519 191.814, 287.929 196.585, 289.517 200.386 C 290.367 202.421, 290.759 205.112, 290.409 206.508 C 289.898 208.541, 290.151 209, 291.781 209 C 292.880 209, 294.841 208.128, 296.139 207.063 C 298.140 205.421, 298.311 204.849, 297.259 203.313 C 296.576 202.316, 294.907 199.475, 293.549 197 C 290.097 190.708, 289.458 189.875, 288.682 190.652 M 283.250 199.527 C 280.872 201.204, 280.256 204.422, 282.096 205.559 C 283.841 206.638, 286.190 203.521, 285.829 200.605 C 285.513 198.050, 285.408 198.006, 283.250 199.527 M 203.604 210.155 C 201.347 213.378, 203.147 216, 207.619 216 C 209.570 216, 211.006 215.662, 210.809 215.250 C 209.527 212.561, 206.385 208.012, 205.807 208.006 C 205.425 208.003, 204.434 208.970, 203.604 210.155 M 352 219.035 C 352 220.737, 351.684 220.901, 350.066 220.035 C 347.182 218.492, 344.511 218.778, 342.655 220.829 C 340.667 223.025, 340.529 225.364, 342.300 226.834 C 343.015 227.427, 347.515 228.101, 352.300 228.332 C 361.917 228.795, 362.672 228.225, 359.163 223.154 C 358.152 221.694, 357.041 219.713, 356.694 218.750 C 355.786 216.233, 352 216.463, 352 219.035 M 374.308 218.194 C 371.237 219.678, 370.787 221.554, 372.510 225.678 C 373.329 227.639, 374 230.245, 374 231.467 C 374 234.010, 376.869 237, 379.310 237 C 381.814 237, 382.539 232.353, 380.651 228.394 C 379.761 226.528, 378.575 225, 378.016 225 C 376.484 225, 376.797 222.413, 378.500 221 C 382.170 217.954, 379.082 215.887, 374.308 218.194 M 167.500 260.742 C 168.050 261.292, 169.850 262.057, 171.500 262.442 C 173.500 262.908, 174.167 262.808, 173.500 262.142 C 172.950 261.592, 171.150 260.827, 169.500 260.442 C 167.500 259.975, 166.833 260.075, 167.500 260.742 M 180.500 265 C 180.143 265.577, 181.070 265.994, 182.691 265.985 C 184.872 265.973, 185.165 265.753, 184 265 C 182.079 263.758, 181.267 263.758, 180.500 265 M 394.600 274.100 C 394.234 276.392, 394.129 278.462, 394.368 278.701 C 394.606 278.940, 395.116 277.274, 395.500 275 C 395.884 272.726, 395.989 270.655, 395.732 270.399 C 395.476 270.143, 394.966 271.808, 394.600 274.100 M 390.556 290.762 C 389.565 293.918, 386.973 300.051, 384.795 304.392 L 380.835 312.283 383.030 318.392 C 386.869 329.076, 392.842 336.967, 403.407 345.313 C 406.758 347.960, 410.962 351.511, 412.750 353.204 C 414.538 354.896, 416 355.778, 416 355.163 C 416 354.548, 411.929 350.834, 406.954 346.909 C 395.832 338.136, 388.920 329.761, 384.969 320.270 L 381.957 313.036 385.338 306.268 C 388.856 299.225, 393.518 286.185, 392.782 285.448 C 392.548 285.215, 391.547 287.606, 390.556 290.762 M 370.565 314.578 C 367.130 318.013, 365.639 323.824, 367.150 327.888 C 367.994 330.157, 368.131 330.191, 369.922 328.570 C 372.213 326.497, 376.454 315.544, 375.539 314.063 C 374.590 312.528, 372.387 312.756, 370.565 314.578 M 413.904 358.525 C 413.065 359.363, 410.156 360.917, 407.440 361.978 C 404.723 363.039, 403.175 363.923, 404 363.943 C 406.296 364, 416 359.231, 416 358.046 C 416 356.654, 415.707 356.721, 413.904 358.525 M 320 367.231 C 313.675 370.510, 309.625 372.864, 311 372.464 C 312.375 372.063, 317.980 369.494, 323.456 366.755 L 333.411 361.775 339.456 363.898 C 342.780 365.065, 346.175 366.004, 347 365.984 C 347.825 365.965, 345.350 364.854, 341.500 363.517 C 337.650 362.179, 333.825 361.127, 333 361.178 C 332.175 361.229, 326.325 363.953, 320 367.231 M 357.728 367.722 C 359.503 367.943, 362.653 367.946, 364.728 367.730 C 366.802 367.513, 365.350 367.333, 361.500 367.328 C 357.650 367.324, 355.952 367.501, 357.728 367.722 M 374.728 367.722 C 376.503 367.943, 379.653 367.946, 381.728 367.730 C 383.802 367.513, 382.350 367.333, 378.500 367.328 C 374.650 367.324, 372.952 367.501, 374.728 367.722 M 221 383.051 C 223.475 383.491, 226.850 383.829, 228.500 383.801 C 230.713 383.763, 230.319 383.540, 227 382.949 C 224.525 382.509, 221.150 382.171, 219.500 382.199 C 217.287 382.237, 217.681 382.460, 221 383.051 M 262.264 383.718 C 263.784 383.947, 266.034 383.941, 267.264 383.704 C 268.494 383.467, 267.250 383.279, 264.500 383.286 C 261.750 383.294, 260.744 383.488, 262.264 383.718 M 238.206 384.741 C 241.895 384.932, 248.195 384.934, 252.206 384.743 C 256.218 384.553, 253.200 384.396, 245.500 384.395 C 237.800 384.393, 234.518 384.549, 238.206 384.741" stroke="none" fill="#323b41" fill-rule="evenodd"/><path d="M 264.207 130.193 C 263.543 130.857, 263 131.955, 263 132.633 C 263 133.951, 261.709 134.452, 255.677 135.472 L 251.854 136.118 255.927 140.537 C 258.167 142.967, 260 145.710, 260 146.633 C 260 148.180, 259.851 148.175, 258.074 146.567 C 255.635 144.360, 252.500 144.892, 252.500 147.514 C 252.500 148.868, 253.523 149.831, 255.713 150.538 L 258.926 151.577 250.213 157.006 C 233.264 167.567, 231.305 169.329, 229.372 175.742 C 226.992 183.642, 225.853 184.789, 222.540 182.618 C 219.045 180.328, 214.233 173.511, 212.847 168.884 C 211.909 165.751, 211.986 164.671, 213.290 162.680 C 214.424 160.949, 214.564 159.964, 213.786 159.186 C 213.008 158.408, 213.202 157.340, 214.475 155.399 C 216.208 152.752, 216.195 152.653, 213.873 150.773 C 212.266 149.472, 211.904 148.688, 212.750 148.343 C 214.471 147.642, 214.330 145, 212.571 145 C 210.106 145, 208.267 142.266, 207.560 137.550 C 207.059 134.207, 206.429 133.003, 205.189 133.013 C 202.984 133.029, 189.077 137.481, 182.819 140.173 L 177.917 142.282 182.958 146.746 C 186.730 150.085, 188 151.909, 188 153.985 C 188 156.060, 189.134 157.688, 192.500 160.446 C 197.110 164.224, 197.832 165.768, 195.895 167.705 C 195.089 168.511, 193.873 168.268, 191.395 166.806 C 187.357 164.423, 187.111 165.411, 190.500 170.405 C 193.570 174.929, 193.571 175, 190.573 175 C 189.218 175, 188.004 175.667, 187.823 176.511 C 187.574 177.675, 186.367 177.215, 182.574 174.511 C 179.865 172.580, 176.781 171, 175.720 171 C 174.039 171, 174.189 170.549, 176.896 167.465 C 181.123 162.651, 180.865 160.153, 175.568 154.625 C 171.682 150.569, 170.623 150, 166.955 150 C 160.887 150, 155 153.538, 155 157.184 C 155 161.185, 157.651 160.799, 159.701 156.500 C 161.666 152.381, 162.427 152.195, 164.483 155.334 C 166.599 158.563, 164.956 162.851, 160.493 165.750 C 158.587 166.988, 156.684 168.009, 156.264 168.019 C 155.057 168.050, 144.993 183.320, 144.997 185.115 C 145.003 188.048, 149.113 192.029, 155.352 195.143 C 161.964 198.443, 167 202.569, 167 204.687 C 167 207.137, 168.622 206.014, 170.522 202.250 C 171.929 199.463, 172.443 196.176, 172.523 189.453 C 172.583 184.477, 172.945 179.897, 173.329 179.276 C 174.944 176.664, 184.769 182.004, 186.883 186.642 C 187.801 188.658, 188.324 188.897, 189.930 188.038 C 193.112 186.335, 193.851 186.773, 196.450 191.901 C 197.816 194.597, 199.961 197.638, 201.217 198.658 C 202.473 199.678, 204.125 201.306, 204.888 202.275 C 207.154 205.153, 203.895 207.664, 195.461 209.541 C 187.985 211.204, 181.284 214.531, 187.392 213.547 C 190.861 212.988, 193.645 214.306, 194.467 216.896 C 194.902 218.267, 195.685 218.641, 197.285 218.240 C 199.447 217.699, 199.456 217.735, 197.685 219.743 C 195.348 222.392, 192.290 223.197, 191.581 221.349 C 190.653 218.931, 186.878 221.723, 178.533 231 C 170.043 240.438, 167 245.432, 167 249.930 L 167 252.940 163.360 250.470 C 154.851 244.695, 140 249.156, 140 257.486 C 140 263.593, 145.694 266.588, 152.435 264.025 C 154.626 263.192, 155 263.324, 155 264.936 C 155 265.973, 156.337 267.947, 157.970 269.322 C 159.604 270.696, 161.759 273.286, 162.759 275.076 C 165.729 280.392, 166.770 280.618, 177.226 278.217 L 186.631 276.056 198.156 280.555 C 210.160 285.241, 214 287.768, 214 290.980 C 214 293.501, 215.064 294.050, 222.884 295.565 C 232.262 297.381, 236.880 299.555, 238.084 302.721 C 238.943 304.981, 238.484 306.616, 235.048 313.519 C 232.822 317.992, 231 322.171, 231 322.806 C 231 323.440, 229.313 324.829, 227.250 325.893 C 222.263 328.464, 220.339 330.419, 215.008 338.332 C 211.815 343.072, 209.898 345, 208.380 345 C 205.965 345, 204.389 346.563, 203.844 349.498 C 203.640 350.597, 201.808 352.397, 199.773 353.498 C 195.098 356.028, 192.716 359.178, 190.701 365.500 C 187.988 374.008, 188.006 374.088, 193 375.643 C 224.725 385.522, 256.913 386.625, 287.985 378.898 C 302.393 375.314, 311.924 371.726, 324.259 365.241 L 333.018 360.636 339.259 362.797 C 349.682 366.407, 354.882 367.137, 370 367.117 C 390.761 367.089, 409.754 363.244, 414.379 358.134 C 415.930 356.420, 415.833 356.123, 412.765 353.218 C 410.969 351.518, 406.758 347.960, 403.407 345.313 C 392.841 336.966, 386.869 329.076, 383.029 318.390 L 380.834 312.280 384.556 304.890 C 391.780 290.547, 396 273.688, 396 259.167 C 396 251.087, 395.904 250.692, 394.443 252.777 C 393.483 254.149, 391.855 254.994, 390.193 254.985 C 386.601 254.965, 380.531 252.790, 378.214 250.694 C 376.194 248.866, 374 248.450, 374 249.894 C 374 252.117, 379.934 257.001, 382.651 257.014 C 387.771 257.038, 390 258.084, 390 260.462 C 390 261.687, 389.200 263.414, 388.222 264.299 C 385.464 266.795, 371.928 274, 369.996 274 C 367.600 274, 363.259 270.400, 362.427 267.724 C 361.390 264.388, 353.191 252, 352.020 252 C 350.256 252, 350.891 254.560, 354.411 261.640 C 359.470 271.816, 367.051 278, 374.468 278 C 375.861 278, 377 278.277, 377 278.616 C 377 279.785, 370.150 288.509, 366.492 292 C 360.097 298.103, 357.054 307.375, 359.946 311.947 C 360.597 312.975, 360.034 314.337, 357.999 316.654 C 356.425 318.447, 353.357 323.646, 351.182 328.207 C 346.767 337.465, 343.769 341.057, 337.999 344.001 C 329.517 348.328, 325.628 345.600, 320 331.377 C 316.852 323.421, 316.500 321.559, 316.500 312.872 C 316.500 304.649, 316.206 302.887, 314.520 301.023 C 313.328 299.706, 312.333 296.818, 312.020 293.769 C 311.195 285.728, 309.256 284.807, 293.397 284.921 C 278.207 285.029, 275.641 284.022, 272.011 276.523 C 268.130 268.506, 269.546 261.018, 276.835 251 C 284.163 240.931, 288.005 238.849, 302.495 237.099 C 309.314 236.275, 310.748 236.367, 312.245 237.721 C 313.210 238.595, 314 239.845, 314 240.500 C 314 241.155, 314.888 242.494, 315.973 243.476 C 317.655 244.997, 320.311 245.314, 333.926 245.618 C 349.473 245.964, 349.947 245.914, 351.452 243.764 C 354.333 239.652, 353.477 238.838, 343.415 236.121 C 340.646 235.374, 338.961 234.210, 338.186 232.509 C 336.710 229.269, 334.216 229.291, 333.398 232.550 C 332.617 235.663, 329.827 235.473, 329.044 232.253 C 328.383 229.536, 320.290 221, 318.374 221 C 316.018 221, 316.865 223.524, 320 225.842 C 323.295 228.278, 323.970 231.950, 321.500 234 C 320.266 235.024, 320 234.941, 320 233.527 C 320 230.996, 316.261 226.186, 312.971 224.485 C 307.748 221.784, 305.302 222.544, 298.644 228.937 C 288.815 238.375, 284.252 238.910, 281.853 230.905 C 280.425 226.138, 280.972 225.531, 287.584 224.540 C 289.923 224.189, 292.331 223.306, 292.935 222.578 C 294.130 221.138, 293.394 218.291, 291.271 216.144 C 289.463 214.314, 290.753 212.926, 296.968 210.015 C 299.736 208.719, 302 207.262, 302 206.778 C 302 206.294, 303.547 205.252, 305.437 204.462 C 308.435 203.209, 308.960 202.449, 309.552 198.501 C 309.925 196.012, 310.698 193.686, 311.270 193.333 C 311.843 192.979, 312.013 193.171, 311.647 193.762 C 310.578 195.492, 312.707 199.772, 315.001 200.500 C 316.164 200.870, 319.384 200.860, 322.155 200.479 C 326.494 199.882, 327.472 199.314, 329.196 196.393 C 330.297 194.527, 331.828 193, 332.599 193 C 333.369 193, 334 192.111, 334 191.024 C 334 189.759, 335.350 188.335, 337.750 187.068 L 341.500 185.088 338 184.929 C 336.075 184.841, 333.825 184.709, 333 184.635 C 330.664 184.425, 330.650 179.551, 332.968 173.357 C 334.124 170.266, 334.873 167.540, 334.633 167.299 C 333.699 166.365, 330.058 169.555, 328.190 172.943 C 327.112 174.900, 325.515 180.100, 324.642 184.500 C 323.419 190.668, 322.464 193.015, 320.472 194.750 C 316.702 198.033, 315.173 197.628, 314.810 193.250 C 314.523 189.778, 314.288 189.523, 311.640 189.805 C 308.118 190.181, 305 187.570, 305 184.246 C 305 180.727, 307.730 175.487, 310.295 174.082 C 311.508 173.417, 314.524 169.865, 316.998 166.187 C 319.472 162.509, 323.616 157.359, 326.209 154.741 L 330.922 149.983 323.211 146.117 C 303.155 136.062, 267.863 126.537, 264.207 130.193 M 209 150.996 C 209 152.209, 211.805 153.529, 212.629 152.705 C 212.927 152.406, 212.233 151.660, 211.086 151.046 C 209.639 150.272, 209 150.257, 209 150.996 M 173.469 159.050 C 172.519 160.588, 173.820 161.580, 175.104 160.296 C 175.822 159.578, 175.839 159.019, 175.156 158.597 C 174.596 158.251, 173.837 158.455, 173.469 159.050 M 350 165.818 C 350 168.192, 354.053 173.512, 354.889 172.234 C 355.225 171.720, 356.095 171.109, 356.823 170.876 C 357.648 170.611, 356.613 169.220, 354.073 167.179 C 350.537 164.337, 350 164.158, 350 165.818 M 268.647 166.686 C 268.270 167.063, 265.945 167.267, 263.481 167.140 C 258.186 166.866, 257.672 168.275, 261.543 172.452 C 263.534 174.600, 264.647 175.054, 266.673 174.546 C 269.819 173.756, 273.926 170.888, 273.969 169.450 C 274.041 167.043, 270.256 165.077, 268.647 166.686 M 159.380 170.452 C 158.517 172.702, 159.841 174, 163 174 C 167.075 174, 167.590 172.356, 164.082 170.543 C 160.409 168.643, 160.077 168.637, 159.380 170.452 M 288.682 190.652 C 287.519 191.814, 287.929 196.585, 289.517 200.386 C 290.367 202.421, 290.759 205.112, 290.409 206.508 C 289.898 208.541, 290.151 209, 291.781 209 C 292.880 209, 294.841 208.128, 296.139 207.063 C 298.140 205.421, 298.311 204.849, 297.259 203.313 C 296.576 202.316, 294.907 199.475, 293.549 197 C 290.097 190.708, 289.458 189.875, 288.682 190.652 M 283.250 199.527 C 280.872 201.204, 280.256 204.422, 282.096 205.559 C 283.841 206.638, 286.190 203.521, 285.829 200.605 C 285.513 198.050, 285.408 198.006, 283.250 199.527 M 203.604 210.155 C 201.347 213.378, 203.147 216, 207.619 216 C 209.570 216, 211.006 215.662, 210.809 215.250 C 209.527 212.561, 206.385 208.012, 205.807 208.006 C 205.425 208.003, 204.434 208.970, 203.604 210.155 M 352 219.035 C 352 220.737, 351.684 220.901, 350.066 220.035 C 347.182 218.492, 344.511 218.778, 342.655 220.829 C 340.667 223.025, 340.529 225.364, 342.300 226.834 C 343.015 227.427, 347.515 228.101, 352.300 228.332 C 361.917 228.795, 362.672 228.225, 359.163 223.154 C 358.152 221.694, 357.041 219.713, 356.694 218.750 C 355.786 216.233, 352 216.463, 352 219.035 M 374.308 218.194 C 371.237 219.678, 370.787 221.554, 372.510 225.678 C 373.329 227.639, 374 230.245, 374 231.467 C 374 234.010, 376.869 237, 379.310 237 C 381.814 237, 382.539 232.353, 380.651 228.394 C 379.761 226.528, 378.575 225, 378.016 225 C 376.484 225, 376.797 222.413, 378.500 221 C 382.170 217.954, 379.082 215.887, 374.308 218.194 M 98.103 237.954 C 95.541 249.903, 97.210 274.682, 101.537 288.934 C 110.776 319.364, 138.597 350.626, 170.218 366.108 C 173.913 367.917, 177.189 369.144, 177.500 368.834 C 177.810 368.524, 178.737 362.472, 179.560 355.385 C 180.383 348.298, 181.784 339.577, 182.673 336.004 C 185.529 324.532, 185.304 323.859, 174.457 311.418 C 170.356 306.714, 167 302.049, 167 301.052 C 167 300.054, 168.153 296.176, 169.562 292.433 C 172.529 284.548, 172.218 281, 168.559 281 C 167.238 281, 162.285 278.975, 157.554 276.500 C 152.822 274.025, 148.277 272, 147.454 272 C 145.009 272, 133.401 266.401, 129.496 263.339 C 127.505 261.778, 123.383 257.209, 120.335 253.187 C 117.287 249.165, 114.560 246.107, 114.275 246.391 C 113.991 246.676, 115.228 249.514, 117.025 252.698 C 121.330 260.326, 118.160 257.670, 112.367 248.796 C 109.927 245.059, 106.758 241.233, 105.325 240.293 C 103.891 239.354, 101.928 237.286, 100.962 235.698 L 99.206 232.810 98.103 237.954 M 167.500 260.742 C 168.050 261.292, 169.850 262.057, 171.500 262.442 C 173.500 262.908, 174.167 262.808, 173.500 262.142 C 172.950 261.592, 171.150 260.827, 169.500 260.442 C 167.500 259.975, 166.833 260.075, 167.500 260.742 M 180.500 265 C 180.143 265.577, 181.070 265.994, 182.691 265.985 C 184.872 265.973, 185.165 265.753, 184 265 C 182.079 263.758, 181.267 263.758, 180.500 265 M 370.565 314.578 C 367.130 318.013, 365.639 323.824, 367.150 327.888 C 367.994 330.157, 368.131 330.191, 369.922 328.570 C 372.213 326.497, 376.454 315.544, 375.539 314.063 C 374.590 312.528, 372.387 312.756, 370.565 314.578" stroke="none" fill="#6c6f70" fill-rule="evenodd"/></svg>