<svg xmlns="http://www.w3.org/2000/svg" width="512" height="512" viewBox="0 0 512 512" version="1.1"><path d="M 227.128 128.141 C 218.444 129.049, 200.071 132.596, 199.119 133.548 C 198.820 133.847, 200.435 133.794, 202.709 133.431 L 206.843 132.770 207.542 137.434 C 208.265 142.255, 210.090 145, 212.571 145 C 214.889 145, 214.205 147.552, 211.500 149 C 208.447 150.634, 208.223 153, 211.122 153 C 212.896 153, 213.040 152.753, 212 151.500 C 210.323 149.480, 212.386 149.528, 214.414 151.557 C 215.824 152.967, 215.816 153.351, 214.337 155.608 C 213.199 157.345, 213.021 158.421, 213.749 159.149 C 214.477 159.877, 214.313 161.035, 213.209 162.959 C 211.746 165.508, 211.764 166.093, 213.438 170.476 C 215.430 175.692, 222.708 184, 225.286 184 C 226.435 184, 227.519 181.972, 228.965 177.116 C 230.917 170.562, 232.005 168.912, 235.934 166.539 C 237.425 165.639, 243.061 161.960, 255.696 153.640 L 258.892 151.535 255.446 150.161 C 251.861 148.731, 250.903 146.358, 253.508 145.359 C 254.337 145.040, 256.121 145.505, 257.473 146.390 C 262.662 149.790, 262.238 147.594, 256.467 141.174 L 251.934 136.132 256.301 135.478 C 261.251 134.735, 262.059 134.297, 263.595 131.523 C 264.197 130.435, 265.772 129.281, 267.095 128.958 C 270.278 128.182, 254.965 126.975, 244 127.139 C 239.325 127.209, 231.733 127.660, 227.128 128.141 M 169.750 145.061 C 164.387 147.788, 159.999 150.128, 159.999 150.260 C 159.998 150.392, 162.483 150.345, 165.521 150.156 C 171 149.815, 171.081 149.852, 175.512 154.656 C 177.968 157.320, 179.983 160.410, 179.989 161.522 C 179.995 162.634, 178.617 165.222, 176.927 167.272 C 174.819 169.830, 174.317 171, 175.327 171 C 176.136 171, 179.139 172.575, 182 174.500 C 187.952 178.505, 188 178.521, 188 176.481 C 188 175.360, 188.655 175.126, 190.500 175.589 C 193.719 176.397, 193.716 174.948, 190.490 170.200 C 187.742 166.156, 188.516 164.982, 192.298 167.460 C 194.425 168.853, 194.866 168.867, 195.941 167.571 C 197.747 165.395, 196.472 162.853, 191.986 159.685 C 188.958 157.547, 188 156.198, 188 154.072 C 188 152.009, 186.702 150.060, 183.060 146.653 C 178.774 142.644, 178.344 141.902, 179.810 141.046 C 180.740 140.504, 181.050 140.070, 180.500 140.082 C 179.950 140.093, 175.113 142.334, 169.750 145.061 M 323 145.421 C 323 145.717, 324.844 146.900, 327.098 148.050 L 331.196 150.141 327.061 153.680 C 324.786 155.627, 321.050 159.983, 318.759 163.360 C 316.467 166.737, 312.672 171.449, 310.326 173.831 C 305.598 178.632, 304.023 183.561, 305.901 187.683 C 306.875 189.820, 307.588 190.150, 310.498 189.810 C 314.164 189.382, 315 190.257, 315 194.523 C 315 198.024, 316.472 198.315, 319.839 195.482 C 322.360 193.361, 323.200 191.401, 325.029 183.373 C 326.654 176.241, 327.929 172.992, 330.023 170.649 C 333.727 166.502, 334.802 167.869, 332.616 173.948 C 331.646 176.645, 330.998 180.122, 331.176 181.675 C 331.473 184.260, 331.925 184.550, 336.500 185.093 C 339.250 185.419, 340.773 185.756, 339.885 185.843 C 337.233 186.101, 333.037 189.934, 333.652 191.537 C 333.992 192.422, 333.619 193, 332.706 193 C 331.876 193, 330.303 194.517, 329.209 196.371 C 327.434 199.378, 326.605 199.819, 321.529 200.453 C 314.997 201.269, 312 199.600, 312 195.145 C 312 191.144, 309.940 194.031, 309.279 198.958 C 308.830 202.306, 308.187 203.358, 306.108 204.145 C 304.673 204.689, 302.600 205.973, 301.500 206.999 C 300.400 208.026, 297.363 209.780, 294.750 210.897 C 292.137 212.015, 290 213.413, 290 214.005 C 290 214.597, 290.971 216.394, 292.157 217.999 C 293.946 220.418, 294.096 221.180, 293.035 222.458 C 292.331 223.306, 291.023 224.003, 290.128 224.006 C 289.232 224.009, 286.813 224.480, 284.750 225.053 C 280.340 226.277, 279.865 228.625, 282.989 233.750 C 286.144 238.924, 289.176 238.013, 298.259 229.159 C 303.189 224.353, 304.559 223.545, 307.785 223.545 C 312.604 223.545, 317.500 226.975, 319.135 231.496 C 320.098 234.161, 320.671 234.688, 321.689 233.843 C 323.986 231.937, 323.198 228.206, 320 225.842 C 317.088 223.689, 315.975 221, 317.997 221 C 319.867 221, 327.302 228.491, 328.666 231.750 C 330.287 235.621, 332.538 235.977, 333.411 232.500 C 334.237 229.209, 336.564 229.318, 338.197 232.725 C 339.243 234.907, 340.753 235.776, 345.786 237.092 C 349.241 237.996, 352.379 239.045, 352.758 239.424 C 353.137 239.803, 352.765 241.325, 351.931 242.807 L 350.416 245.500 334.458 245.500 C 316.965 245.500, 318.424 245.954, 312.694 238.736 L 310.500 235.972 301.500 237.051 C 289.815 238.452, 284.722 240.970, 278.954 248.198 C 269.737 259.747, 267.533 268.376, 271.724 276.500 C 275.662 284.134, 276.428 284.440, 292.998 285 C 310.330 285.586, 312 286.334, 312 293.520 C 312 296.369, 312.728 298.659, 314.250 300.602 C 316.269 303.180, 316.473 304.421, 316.232 312.714 C 315.977 321.519, 316.149 322.390, 319.903 331.227 C 326.374 346.463, 329.612 348.513, 339.073 343.364 C 344.494 340.413, 347.424 336.657, 352.057 326.717 C 353.796 322.987, 356.542 318.612, 358.159 316.995 C 360.576 314.578, 360.912 313.705, 360.050 312.093 C 358.496 309.189, 358.775 303.335, 360.640 299.729 C 361.542 297.985, 364.609 294.070, 367.455 291.029 C 373.445 284.628, 377 280.098, 377 278.865 C 377 278.389, 375.792 278, 374.316 278 C 370.346 278, 363.514 274.349, 360.006 270.354 C 357.005 266.936, 351 255.467, 351 253.153 C 351 249.631, 356.660 256.350, 360.979 265 C 363.876 270.803, 366.842 274, 369.328 274 C 373.976 274, 387.895 265.934, 389.985 262.029 C 391.412 259.362, 388.771 257, 384.363 257 C 379.806 257, 377.373 255.621, 375.485 251.970 C 373.675 248.471, 375.164 247.912, 378.436 250.861 C 383.174 255.134, 392.003 256.262, 394.360 252.896 L 395.834 250.792 396.281 253.146 C 396.526 254.441, 396.789 253.187, 396.864 250.360 C 397.174 238.651, 390.981 216.299, 383.561 202.350 C 374.627 185.553, 360.348 169.580, 343.422 157.448 C 334.797 151.266, 323 144.318, 323 145.421 M 159.645 156.152 C 157.516 160.678, 155.498 160.726, 155.504 156.251 C 155.509 152.490, 154.984 152.716, 144.815 160.857 C 122.163 178.993, 107.751 199.460, 100.105 224.355 C 97.819 231.799, 97.481 234.439, 98.928 233.544 C 99.438 233.229, 100.145 233.882, 100.498 234.995 C 100.852 236.108, 102.874 238.412, 104.993 240.115 C 107.112 241.818, 110.421 245.762, 112.345 248.880 C 115.961 254.739, 120 259.136, 120 257.214 C 120 256.611, 119.544 255.836, 118.986 255.491 C 117.607 254.639, 113.764 246.994, 114.730 247.025 C 115.153 247.039, 117.750 250.043, 120.500 253.701 C 127.023 262.378, 135.270 268.417, 144.371 271.180 C 148.292 272.371, 155.100 275.219, 159.500 277.508 C 163.900 279.798, 168.512 281.928, 169.750 282.242 C 172.621 282.970, 172.580 284.614, 169.500 292.192 C 166.150 300.436, 166.315 302.290, 170.838 307.272 C 181.263 318.757, 184 322.922, 183.989 327.289 C 183.983 329.605, 183.338 333.609, 182.556 336.187 C 181.774 338.764, 180.431 346.933, 179.573 354.340 C 178.714 361.747, 177.763 368.453, 177.460 369.243 C 177.058 370.292, 179.213 371.569, 185.472 373.989 C 190.181 375.810, 194.284 377.050, 194.589 376.745 C 194.893 376.440, 193.761 375.887, 192.072 375.516 C 188.470 374.725, 188.145 372.682, 190.539 365.876 C 192.962 358.986, 196.462 354.358, 199.746 353.701 C 201.989 353.252, 203.012 352.196, 204.244 349.060 C 205.508 345.844, 206.351 345, 208.302 345 C 210.224 345, 211.666 343.617, 214.871 338.698 C 219.385 331.769, 223.037 327.981, 227.281 325.825 C 229.308 324.795, 231.271 321.851, 234.526 314.956 C 236.982 309.755, 238.993 304.745, 238.995 303.821 C 239.005 300.192, 233.442 297.500, 220.750 294.994 C 216.387 294.132, 215 293.438, 215 292.118 C 215 288.076, 209.911 284.785, 194.799 279.052 L 186.098 275.752 177.147 277.964 C 167.023 280.465, 164.578 279.955, 162.844 274.983 C 162.295 273.408, 160.264 270.913, 158.330 269.438 C 155.728 267.453, 154.924 266.176, 155.240 264.524 C 155.643 262.419, 155.519 262.368, 153.083 263.640 C 144.949 267.884, 136.517 260.418, 141.465 253.353 C 146.074 246.773, 162.180 246.313, 165.867 252.656 C 166.777 254.221, 166.944 253.965, 166.970 250.961 C 167.013 245.892, 169.574 241.511, 178.572 231.118 C 186.288 222.205, 190.395 219.403, 191.980 221.968 C 192.873 223.412, 195.789 222.176, 198.082 219.381 C 199.362 217.821, 199.281 217.710, 197.250 218.233 C 195.806 218.605, 195 218.364, 195 217.561 C 195 214.935, 191.189 212.714, 187.777 213.352 C 184.770 213.914, 184.655 213.846, 186.382 212.526 C 187.416 211.735, 190.791 210.569, 193.882 209.936 C 201.533 208.368, 206 206.401, 206 204.599 C 206 203.773, 204.495 201.612, 202.655 199.798 C 200.816 197.984, 198.073 194.363, 196.560 191.750 C 193.886 187.131, 190.969 185.623, 189.453 188.076 C 189.062 188.709, 187.817 187.723, 186.431 185.683 C 183.551 181.446, 175.447 177.152, 173.675 178.925 C 172.963 179.637, 172.481 183.531, 172.452 188.800 C 172.416 195.324, 171.895 198.626, 170.372 202 L 168.340 206.500 166.643 203.248 C 165.392 200.850, 162.918 198.974, 157.223 196.109 C 143.996 189.452, 143.107 187.153, 149.804 176.906 C 153.087 171.881, 156.130 168.562, 159.269 166.584 C 166.155 162.243, 167.517 157.114, 162.805 153.272 C 161.803 152.455, 161.069 153.124, 159.645 156.152 M 173 159.500 C 173 160.417, 173.484 161.005, 174.075 160.808 C 174.666 160.611, 175.150 160.022, 175.150 159.500 C 175.150 158.978, 174.666 158.389, 174.075 158.192 C 173.484 157.995, 173 158.583, 173 159.500 M 350.005 165.750 C 350.011 167.745, 354.909 174.165, 354.964 172.250 C 354.984 171.563, 355.763 171, 356.696 171 C 357.968 171, 357.544 170.124, 355 167.500 C 351.213 163.593, 349.998 163.167, 350.005 165.750 M 269.500 166 C 269.160 166.550, 266.659 167, 263.941 167 C 258.235 167, 257.652 168.254, 261.452 172.354 C 264.409 175.545, 266.204 175.655, 270.632 172.918 C 274.339 170.627, 274.812 168.955, 272.429 166.571 C 270.582 164.725, 270.320 164.674, 269.500 166 M 159.224 170.176 C 157.396 172.004, 159.692 174, 163.622 174 C 167.620 174, 167.933 172.841, 164.535 170.615 C 161.597 168.690, 160.778 168.622, 159.224 170.176 M 288.682 190.652 C 287.548 191.785, 287.914 196.549, 289.409 200.128 C 290.184 201.983, 290.582 204.738, 290.292 206.250 C 289.834 208.648, 290.082 209, 292.228 209 C 295.735 209, 298.803 205.428, 297.217 203.191 C 296.557 202.261, 294.907 199.475, 293.549 197 C 290.097 190.708, 289.458 189.875, 288.682 190.652 M 282.616 199.527 C 280.632 201.511, 280.467 206, 282.378 206 C 284.233 206, 285.905 203.844, 286.232 201.030 C 286.567 198.147, 284.751 197.392, 282.616 199.527 M 203.369 210.560 C 201.931 212.754, 201.892 213.311, 203.096 214.453 C 205.052 216.309, 208.252 217.110, 209.807 216.133 C 210.835 215.487, 210.621 214.538, 208.807 211.698 C 207.538 209.711, 206.173 208.066, 205.773 208.042 C 205.373 208.019, 204.291 209.152, 203.369 210.560 M 352.500 218 C 352.160 218.550, 352.207 219.526, 352.605 220.170 C 353.119 221.002, 352.776 221.099, 351.414 220.504 C 347.311 218.711, 343.675 219.377, 342.067 222.215 C 340.822 224.412, 340.772 225.172, 341.802 226.202 C 343.229 227.629, 359.044 229.170, 360.321 228.006 C 361.372 227.048, 355.894 217.034, 354.309 217.014 C 353.654 217.006, 352.840 217.450, 352.500 218 M 374.500 218.195 C 371.375 219.967, 371.094 221.014, 372.598 225.277 C 373.369 227.463, 374 230.310, 374 231.603 C 374 234.790, 378.388 237.753, 380.505 235.996 C 381.327 235.313, 382 233.888, 382 232.828 C 382 230.300, 379.383 225.294, 377.783 224.761 C 376.796 224.432, 376.839 223.709, 377.980 221.421 C 378.781 219.814, 379.600 218.162, 379.801 217.750 C 380.356 216.610, 376.762 216.912, 374.500 218.195 M 96.286 245.500 C 96.294 248.250, 96.488 249.256, 96.718 247.736 C 96.947 246.216, 96.941 243.966, 96.704 242.736 C 96.467 241.506, 96.279 242.750, 96.286 245.500 M 396.300 263 C 396.300 266.025, 396.487 267.262, 396.716 265.750 C 396.945 264.238, 396.945 261.762, 396.716 260.250 C 396.487 258.738, 396.300 259.975, 396.300 263 M 167.581 260.981 C 168.121 261.521, 170.123 262.200, 172.031 262.491 L 175.500 263.019 172.500 261.555 C 168.986 259.839, 166.103 259.503, 167.581 260.981 M 96.300 266 C 96.300 269.025, 96.487 270.262, 96.716 268.750 C 96.945 267.238, 96.945 264.762, 96.716 263.250 C 96.487 261.738, 96.300 262.975, 96.300 266 M 180.500 265 C 180.148 265.569, 181.009 266, 182.500 266 C 183.991 266, 184.852 265.569, 184.500 265 C 184.160 264.450, 183.260 264, 182.500 264 C 181.740 264, 180.840 264.450, 180.500 265 M 389.462 294.185 C 388.504 297.108, 386.218 302.508, 384.381 306.184 C 381.189 312.573, 381.102 313.038, 382.413 316.755 C 386.720 328.961, 394.989 339.355, 408.166 349.123 C 411.849 351.853, 415.083 354.630, 415.352 355.294 C 415.729 356.221, 415.860 356.216, 415.921 355.273 C 415.964 354.598, 411.929 350.834, 406.954 346.909 C 395.831 338.135, 388.920 329.761, 384.968 320.268 L 381.955 313.032 385.116 306.770 C 388.507 300.052, 392.261 289.928, 391.604 289.271 C 391.384 289.051, 390.420 291.262, 389.462 294.185 M 110.500 312 C 111.353 313.650, 112.276 315, 112.551 315 C 112.826 315, 112.353 313.650, 111.500 312 C 110.647 310.350, 109.724 309, 109.449 309 C 109.174 309, 109.647 310.350, 110.500 312 M 372.302 313.059 C 371.094 313.520, 369.335 315.383, 368.395 317.198 C 366.635 320.596, 365.923 328.255, 367.244 329.577 C 368.598 330.932, 371.927 326.810, 374.041 321.161 C 376.464 314.685, 375.826 311.715, 372.302 313.059 M 120.029 326.171 C 121.787 328.740, 124.605 332.115, 126.290 333.671 C 128.546 335.753, 128.262 335.180, 125.218 331.500 C 117.545 322.228, 116.821 321.484, 120.029 326.171 M 139.561 346.500 C 145.783 352.501, 153 357.992, 153 356.726 C 153 356.513, 150.863 354.819, 148.250 352.961 C 145.637 351.102, 140.981 347.314, 137.901 344.541 C 134.822 341.768, 135.569 342.650, 139.561 346.500 M 160 361.449 C 160 361.724, 161.350 362.647, 163 363.500 C 164.650 364.353, 166 364.826, 166 364.551 C 166 364.276, 164.650 363.353, 163 362.500 C 161.350 361.647, 160 361.174, 160 361.449 M 328.750 363.068 C 326.688 364.157, 325 365.271, 325 365.544 C 325 365.817, 326.856 365.094, 329.125 363.936 C 333.063 361.927, 333.896 361.884, 338.500 363.456 C 339.843 363.914, 339.679 363.634, 338 362.605 C 334.741 360.605, 333.276 360.679, 328.750 363.068 M 357.264 367.718 C 358.784 367.947, 361.034 367.941, 362.264 367.704 C 363.494 367.467, 362.250 367.279, 359.500 367.286 C 356.750 367.294, 355.744 367.488, 357.264 367.718 M 377.250 367.716 C 378.762 367.945, 381.238 367.945, 382.750 367.716 C 384.262 367.487, 383.025 367.300, 380 367.300 C 376.975 367.300, 375.738 367.487, 377.250 367.716 M 315 370 C 313.075 371.054, 311.950 371.916, 312.500 371.916 C 313.050 371.916, 315.075 371.054, 317 370 C 318.925 368.946, 320.050 368.084, 319.500 368.084 C 318.950 368.084, 316.925 368.946, 315 370 M 225.250 383.689 C 226.213 383.941, 227.787 383.941, 228.750 383.689 C 229.713 383.438, 228.925 383.232, 227 383.232 C 225.075 383.232, 224.287 383.438, 225.250 383.689 M 263.762 383.707 C 265.006 383.946, 266.806 383.937, 267.762 383.687 C 268.718 383.437, 267.700 383.241, 265.500 383.252 C 263.300 383.263, 262.518 383.468, 263.762 383.707 M 238.206 384.741 C 241.895 384.932, 248.195 384.934, 252.206 384.743 C 256.218 384.553, 253.200 384.396, 245.500 384.395 C 237.800 384.393, 234.518 384.549, 238.206 384.741" stroke="none" fill="#bbc4cc" fill-rule="evenodd"/><path d="M 264.250 130.137 C 263.563 130.832, 263 131.955, 263 132.633 C 263 133.959, 261.612 134.519, 255.756 135.557 L 252.013 136.220 256.506 141.218 C 262.241 147.596, 262.649 149.782, 257.473 146.390 C 256.121 145.505, 254.337 145.040, 253.508 145.359 C 250.903 146.358, 251.861 148.731, 255.446 150.161 L 258.892 151.535 255.696 153.640 C 243.061 161.960, 237.425 165.639, 235.934 166.539 C 232.005 168.912, 230.917 170.562, 228.965 177.116 C 227.519 181.972, 226.435 184, 225.286 184 C 222.708 184, 215.430 175.692, 213.438 170.476 C 211.764 166.093, 211.746 165.508, 213.209 162.959 C 214.313 161.035, 214.477 159.877, 213.749 159.149 C 213.021 158.421, 213.199 157.345, 214.337 155.608 C 215.816 153.351, 215.824 152.967, 214.414 151.557 C 212.386 149.528, 210.323 149.480, 212 151.500 C 213.040 152.753, 212.896 153, 211.122 153 C 208.223 153, 208.447 150.634, 211.500 149 C 214.205 147.552, 214.889 145, 212.571 145 C 210.106 145, 208.267 142.266, 207.560 137.550 C 207.027 133.998, 206.463 133, 204.990 133 C 202.698 133, 188.536 137.413, 182.433 140.029 L 178.007 141.926 183.003 146.600 C 186.695 150.053, 188 152.005, 188 154.072 C 188 156.198, 188.958 157.547, 191.986 159.685 C 196.472 162.853, 197.747 165.395, 195.941 167.571 C 194.866 168.867, 194.425 168.853, 192.298 167.460 C 188.516 164.982, 187.742 166.156, 190.490 170.200 C 193.716 174.948, 193.719 176.397, 190.500 175.589 C 188.655 175.126, 188 175.360, 188 176.481 C 188 178.521, 187.952 178.505, 182 174.500 C 179.139 172.575, 176.136 171, 175.327 171 C 174.317 171, 174.819 169.830, 176.927 167.272 C 178.617 165.222, 179.995 162.634, 179.989 161.522 C 179.983 160.410, 178.007 157.363, 175.598 154.750 C 171.556 150.367, 170.850 150, 166.476 150 C 160.084 150, 154.766 153.200, 155.195 156.789 C 155.672 160.789, 157.562 160.464, 159.770 156 L 161.790 151.917 163.895 154.594 C 165.053 156.065, 166 157.638, 166 158.088 C 166 160.616, 163.252 164.073, 159.224 166.612 C 156.134 168.560, 153.068 171.911, 149.804 176.906 C 143.107 187.153, 143.996 189.452, 157.223 196.109 C 162.918 198.974, 165.392 200.850, 166.643 203.248 L 168.340 206.500 170.372 202 C 171.895 198.626, 172.416 195.324, 172.452 188.800 C 172.481 183.531, 172.963 179.637, 173.675 178.925 C 175.447 177.152, 183.551 181.446, 186.431 185.683 C 187.817 187.723, 189.062 188.709, 189.453 188.076 C 190.969 185.623, 193.886 187.131, 196.560 191.750 C 198.073 194.363, 200.816 197.984, 202.655 199.798 C 204.495 201.612, 206 203.773, 206 204.599 C 206 206.401, 201.533 208.368, 193.882 209.936 C 190.791 210.569, 187.416 211.735, 186.382 212.526 C 184.655 213.846, 184.770 213.914, 187.777 213.352 C 191.189 212.714, 195 214.935, 195 217.561 C 195 218.364, 195.806 218.605, 197.250 218.233 C 199.281 217.710, 199.362 217.821, 198.082 219.381 C 195.789 222.176, 192.873 223.412, 191.980 221.968 C 190.395 219.403, 186.288 222.205, 178.572 231.118 C 169.574 241.511, 167.013 245.892, 166.970 250.961 C 166.944 253.965, 166.777 254.221, 165.867 252.656 C 162.180 246.313, 146.074 246.773, 141.465 253.353 C 136.517 260.418, 144.949 267.884, 153.083 263.640 C 155.519 262.368, 155.643 262.419, 155.240 264.524 C 154.924 266.176, 155.728 267.453, 158.330 269.438 C 160.264 270.913, 162.295 273.408, 162.844 274.983 C 164.578 279.955, 167.023 280.465, 177.147 277.964 L 186.098 275.752 194.799 279.052 C 209.911 284.785, 215 288.076, 215 292.118 C 215 293.438, 216.387 294.132, 220.750 294.994 C 233.442 297.500, 239.005 300.192, 238.995 303.821 C 238.993 304.745, 236.982 309.755, 234.526 314.956 C 231.271 321.851, 229.308 324.795, 227.281 325.825 C 223.037 327.981, 219.385 331.769, 214.871 338.698 C 211.666 343.617, 210.224 345, 208.302 345 C 206.351 345, 205.508 345.844, 204.244 349.060 C 203.012 352.196, 201.989 353.252, 199.746 353.701 C 196.462 354.358, 192.962 358.986, 190.539 365.876 C 187.750 373.805, 188.082 374.441, 196.250 376.823 C 213.755 381.927, 228.083 384, 245.849 384 C 274.203 384, 298.223 378.471, 322.637 366.325 L 333.912 360.716 338.706 362.755 C 355.078 369.720, 389.003 369.033, 409.736 361.316 C 417.953 358.257, 417.681 356.177, 408.136 349.101 C 394.989 339.355, 386.717 328.952, 382.413 316.753 C 381.111 313.064, 381.196 312.554, 384.051 306.900 C 392.360 290.440, 397.119 269.244, 396.148 253.027 L 396 250.555 394.443 252.777 C 392.003 256.261, 383.263 255.215, 378.436 250.861 C 375.164 247.912, 373.675 248.471, 375.485 251.970 C 377.373 255.621, 379.806 257, 384.363 257 C 388.771 257, 391.412 259.362, 389.985 262.029 C 387.895 265.934, 373.976 274, 369.328 274 C 366.842 274, 363.876 270.803, 360.979 265 C 356.660 256.350, 351 249.631, 351 253.153 C 351 255.467, 357.005 266.936, 360.006 270.354 C 363.514 274.349, 370.346 278, 374.316 278 C 375.792 278, 377 278.389, 377 278.865 C 377 280.098, 373.445 284.628, 367.455 291.029 C 364.609 294.070, 361.542 297.985, 360.640 299.729 C 358.775 303.335, 358.496 309.189, 360.050 312.093 C 360.912 313.705, 360.576 314.578, 358.159 316.995 C 356.542 318.612, 353.796 322.987, 352.057 326.717 C 347.424 336.657, 344.494 340.413, 339.073 343.364 C 329.612 348.513, 326.374 346.463, 319.903 331.227 C 316.149 322.390, 315.977 321.519, 316.232 312.714 C 316.473 304.421, 316.269 303.180, 314.250 300.602 C 312.728 298.659, 312 296.369, 312 293.520 C 312 286.334, 310.330 285.586, 292.998 285 C 276.428 284.440, 275.662 284.134, 271.724 276.500 C 267.533 268.376, 269.737 259.747, 278.954 248.198 C 284.722 240.970, 289.815 238.452, 301.500 237.051 L 310.500 235.972 312.694 238.736 C 318.424 245.954, 316.965 245.500, 334.458 245.500 L 350.416 245.500 351.931 242.807 C 352.765 241.325, 353.137 239.803, 352.758 239.424 C 352.379 239.045, 349.241 237.996, 345.786 237.092 C 340.753 235.776, 339.243 234.907, 338.197 232.725 C 336.564 229.318, 334.237 229.209, 333.411 232.500 C 332.538 235.977, 330.287 235.621, 328.666 231.750 C 327.302 228.491, 319.867 221, 317.997 221 C 315.975 221, 317.088 223.689, 320 225.842 C 323.198 228.206, 323.986 231.937, 321.689 233.843 C 320.671 234.688, 320.098 234.161, 319.135 231.496 C 317.500 226.975, 312.604 223.545, 307.785 223.545 C 304.559 223.545, 303.189 224.353, 298.259 229.159 C 289.176 238.013, 286.144 238.924, 282.989 233.750 C 279.865 228.625, 280.340 226.277, 284.750 225.053 C 286.813 224.480, 289.232 224.009, 290.128 224.006 C 291.023 224.003, 292.331 223.306, 293.035 222.458 C 294.096 221.180, 293.946 220.418, 292.157 217.999 C 290.971 216.394, 290 214.597, 290 214.005 C 290 213.413, 292.137 212.015, 294.750 210.897 C 297.363 209.780, 300.400 208.026, 301.500 206.999 C 302.600 205.973, 304.673 204.689, 306.108 204.145 C 308.187 203.358, 308.830 202.306, 309.279 198.958 C 309.940 194.031, 312 191.144, 312 195.145 C 312 199.600, 314.997 201.269, 321.529 200.453 C 326.605 199.819, 327.434 199.378, 329.209 196.371 C 330.303 194.517, 331.876 193, 332.706 193 C 333.619 193, 333.992 192.422, 333.652 191.537 C 333.037 189.934, 337.233 186.101, 339.885 185.843 C 340.773 185.756, 339.250 185.419, 336.500 185.093 C 331.925 184.550, 331.473 184.260, 331.176 181.675 C 330.998 180.122, 331.646 176.645, 332.616 173.948 C 334.802 167.869, 333.727 166.502, 330.023 170.649 C 327.929 172.992, 326.654 176.241, 325.029 183.373 C 323.200 191.401, 322.360 193.361, 319.839 195.482 C 316.472 198.315, 315 198.024, 315 194.523 C 315 190.257, 314.164 189.382, 310.498 189.810 C 307.588 190.150, 306.875 189.820, 305.901 187.683 C 304.023 183.561, 305.598 178.632, 310.326 173.831 C 312.672 171.449, 316.467 166.737, 318.759 163.360 C 321.050 159.983, 324.764 155.646, 327.011 153.723 L 331.096 150.226 324.798 146.735 C 306.765 136.742, 268.182 126.165, 264.250 130.137 M 173 159.500 C 173 160.417, 173.484 161.005, 174.075 160.808 C 174.666 160.611, 175.150 160.022, 175.150 159.500 C 175.150 158.978, 174.666 158.389, 174.075 158.192 C 173.484 157.995, 173 158.583, 173 159.500 M 350.005 165.750 C 350.011 167.745, 354.909 174.165, 354.964 172.250 C 354.984 171.563, 355.763 171, 356.696 171 C 357.968 171, 357.544 170.124, 355 167.500 C 351.213 163.593, 349.998 163.167, 350.005 165.750 M 269.500 166 C 269.160 166.550, 266.659 167, 263.941 167 C 258.235 167, 257.652 168.254, 261.452 172.354 C 264.409 175.545, 266.204 175.655, 270.632 172.918 C 274.339 170.627, 274.812 168.955, 272.429 166.571 C 270.582 164.725, 270.320 164.674, 269.500 166 M 159.224 170.176 C 157.396 172.004, 159.692 174, 163.622 174 C 167.620 174, 167.933 172.841, 164.535 170.615 C 161.597 168.690, 160.778 168.622, 159.224 170.176 M 288.682 190.652 C 287.548 191.785, 287.914 196.549, 289.409 200.128 C 290.184 201.983, 290.582 204.738, 290.292 206.250 C 289.834 208.648, 290.082 209, 292.228 209 C 295.735 209, 298.803 205.428, 297.217 203.191 C 296.557 202.261, 294.907 199.475, 293.549 197 C 290.097 190.708, 289.458 189.875, 288.682 190.652 M 282.616 199.527 C 280.632 201.511, 280.467 206, 282.378 206 C 284.233 206, 285.905 203.844, 286.232 201.030 C 286.567 198.147, 284.751 197.392, 282.616 199.527 M 203.369 210.560 C 201.931 212.754, 201.892 213.311, 203.096 214.453 C 205.052 216.309, 208.252 217.110, 209.807 216.133 C 210.835 215.487, 210.621 214.538, 208.807 211.698 C 207.538 209.711, 206.173 208.066, 205.773 208.042 C 205.373 208.019, 204.291 209.152, 203.369 210.560 M 352.500 218 C 352.160 218.550, 352.207 219.526, 352.605 220.170 C 353.119 221.002, 352.776 221.099, 351.414 220.504 C 347.311 218.711, 343.675 219.377, 342.067 222.215 C 340.822 224.412, 340.772 225.172, 341.802 226.202 C 343.229 227.629, 359.044 229.170, 360.321 228.006 C 361.372 227.048, 355.894 217.034, 354.309 217.014 C 353.654 217.006, 352.840 217.450, 352.500 218 M 374.500 218.195 C 371.375 219.967, 371.094 221.014, 372.598 225.277 C 373.369 227.463, 374 230.310, 374 231.603 C 374 234.790, 378.388 237.753, 380.505 235.996 C 381.327 235.313, 382 233.888, 382 232.828 C 382 230.300, 379.383 225.294, 377.783 224.761 C 376.796 224.432, 376.839 223.709, 377.980 221.421 C 378.781 219.814, 379.600 218.162, 379.801 217.750 C 380.356 216.610, 376.762 216.912, 374.500 218.195 M 98.684 233.702 C 98.389 234.179, 97.639 239.189, 97.018 244.835 C 94.041 271.893, 101.710 299.568, 118.760 323.290 C 125.914 333.244, 138.933 346.190, 149.278 353.639 C 159.024 360.656, 176.173 370.227, 177.185 369.215 C 177.598 368.802, 178.655 362.257, 179.534 354.669 C 180.414 347.082, 181.774 338.764, 182.556 336.187 C 183.338 333.609, 183.983 329.605, 183.989 327.289 C 184 322.922, 181.263 318.757, 170.838 307.272 C 166.315 302.290, 166.150 300.436, 169.500 292.192 C 172.580 284.614, 172.621 282.970, 169.750 282.242 C 168.512 281.928, 163.900 279.798, 159.500 277.508 C 155.100 275.219, 148.292 272.371, 144.371 271.180 C 135.270 268.417, 127.023 262.378, 120.500 253.701 C 117.750 250.043, 115.153 247.039, 114.730 247.025 C 113.764 246.994, 117.607 254.639, 118.986 255.491 C 119.544 255.836, 120 256.597, 120 257.181 C 120 259.157, 116.710 255.582, 112.373 248.895 C 110.018 245.262, 106.923 241.525, 105.497 240.590 C 104.071 239.656, 102.076 237.528, 101.063 235.863 C 100.050 234.197, 98.979 233.224, 98.684 233.702 M 167.581 260.981 C 168.121 261.521, 170.123 262.200, 172.031 262.491 L 175.500 263.019 172.500 261.555 C 168.986 259.839, 166.103 259.503, 167.581 260.981 M 180.500 265 C 180.148 265.569, 181.009 266, 182.500 266 C 183.991 266, 184.852 265.569, 184.500 265 C 184.160 264.450, 183.260 264, 182.500 264 C 181.740 264, 180.840 264.450, 180.500 265 M 372.302 313.059 C 371.094 313.520, 369.335 315.383, 368.395 317.198 C 366.635 320.596, 365.923 328.255, 367.244 329.577 C 368.598 330.932, 371.927 326.810, 374.041 321.161 C 376.464 314.685, 375.826 311.715, 372.302 313.059" stroke="none" fill="#fbfbfb" fill-rule="evenodd"/></svg>