<svg
	class="{classNames} inline dark:hidden"
	width="1em"
	height="1em"
	viewBox="0 0 17 17"
	fill="none"
	xmlns="http://www.w3.org/2000/svg"
>
	<path
		d="M5.97723 12.3813C6.24999 12.716 6.57417 13.0946 6.98016 13.4741C5.89247 14.0066 4.44119 14.3305 2.34833 14.3306V12.9272C4.02198 12.9272 5.1585 12.7025 5.97723 12.3813ZM10.0788 6.20459C10.3481 6.50673 10.6245 6.76948 10.9724 6.99365C11.5909 7.39219 12.4912 7.69774 14.0524 7.69775V9.10205C12.4913 9.10207 11.5909 9.40765 10.9724 9.80615C10.6248 10.0302 10.348 10.2924 10.0788 10.5942C9.78249 10.3597 9.52319 10.0704 9.21259 9.68799C9.18171 9.64997 9.14949 9.60986 9.11591 9.56787C9.42481 9.23402 9.77972 8.9064 10.2126 8.62744C10.3377 8.54682 10.4685 8.47121 10.6052 8.3999C10.4685 8.32859 10.3377 8.25299 10.2126 8.17236C9.77943 7.89322 9.42495 7.56504 9.11591 7.23096C9.1493 7.18921 9.18187 7.14963 9.21259 7.11182C9.52337 6.72913 9.78226 6.43921 10.0788 6.20459ZM2.34833 2.46924C4.44088 2.46933 5.89252 2.7924 6.98016 3.32471C6.57418 3.70415 6.25 4.08282 5.97723 4.41748C5.15853 4.09637 4.0217 3.87361 2.34833 3.87354V2.46924Z"
		fill="url(#paint0_linear_3699_575)"
	/>
	<path
		d="M14.052 3.87332C12.0512 3.87338 10.8161 4.18918 9.97647 4.61442C9.14382 5.03624 8.63688 5.59534 8.12318 6.22792C7.62178 6.84536 7.06413 7.60736 6.18741 8.17236C6.06225 8.25301 5.93137 8.3289 5.79462 8.40023C5.93144 8.47159 6.06219 8.5474 6.18741 8.62809C7.06422 9.19316 7.62174 9.95506 8.12318 10.5725C8.6369 11.2051 9.14374 11.7642 9.97647 12.186C10.8161 12.6113 12.0512 12.9271 14.052 12.9271V14.3312C11.9098 14.3312 10.4387 13.9932 9.34279 13.4382C8.24007 12.8797 7.58149 12.1313 7.03377 11.4569C6.47365 10.7671 6.07238 10.2218 5.42786 9.80648C4.80925 9.40788 3.90875 9.10227 2.34735 9.10227V7.69819C3.90859 7.69819 4.80926 7.39252 5.42786 6.99398C6.07232 6.57866 6.47373 6.03324 7.03377 5.34359C7.58147 4.66913 8.24014 3.92079 9.34279 3.36225C10.4387 2.80724 11.9098 2.4693 14.052 2.46924V3.87332Z"
		fill="url(#paint1_linear_3699_575)"
	/>
	<defs>
		<linearGradient
			id="paint0_linear_3699_575"
			x1="10.2848"
			y1="8.26295"
			x2="-0.713577"
			y2="8.26295"
			gradientUnits="userSpaceOnUse"
		>
			<stop />
			<stop offset="1" stop-opacity="0" />
		</linearGradient>
		<linearGradient
			id="paint1_linear_3699_575"
			x1="1.34749"
			y1="8.26327"
			x2="14.273"
			y2="8.26327"
			gradientUnits="userSpaceOnUse"
		>
			<stop stop-opacity="0" />
			<stop offset="1" />
		</linearGradient>
	</defs>
</svg>